<svg id="Layer_1" data-name="Layer 1" xmlns="http://www.w3.org/2000/svg" viewBox="0 0 481.38 481.38">
<path d="M124,35.76l-0.72.43,0,0.1Z" transform="translate(-2 -2)"/>
<g id="shape-rotate">
<path d="M161.19,30.51c-0.52.23-1,.48-1.56,0.7-0.24.09-.47,0.19-0.7,0.28A228.11,228.11,0,0,0,75.64,88.72c-2.19,2.35-4.31,4.77-6.52,7.23-1.85,2.3-4,4.93-5.71,7.11s-3.38,4.51-5.12,6.73a2.19,2.19,0,0,1-1.1.29,4,4,0,0,1-.2,1.49c-0.59,1-1.34,2-2,3A227.2,227.2,0,0,0,15.55,226.14a222.56,222.56,0,0,0,.18,37.11c0.16,1.79.28,3.58,0.44,5.5,0.1,0.82.37,2.72,0.5,3.54,0.75,4.87,1.48,9.74,2.3,14.6,0.47,2.8,1.11,5.57,1.71,8.53a2,2,0,0,0,.2.92,13.91,13.91,0,0,1,.67,2.44c1.46,5.12,2.89,10.25,4.4,15.36,0.75,2.54,1.67,5,2.54,7.63l1.39,3.44A225.81,225.81,0,0,0,64.56,386c0.26,0.33.48,0.69,0.77,1.11,0.09,0,.56.8,0.63,0.83a7.35,7.35,0,0,1,1.67,1.84L82.5,406c0.22,0.24,2.14,2.29,2.58,2.82s1.3,0.92,2,1.54c5.64,5,12.17,10.57,17.62,15.33,0.47,0.26,3,2,3.18,2.09l7.45,5.28h0l0.21,0.15a7.59,7.59,0,0,1,.66.64c0.6,0.38,1.24.62,1.83,1q5.65,3.45,11.26,7a2.11,2.11,0,0,1,.44.94,21.77,21.77,0,0,1,3.4,1.21,226.7,226.7,0,0,0,55.13,21.56c3.39,0.83,6.8,1.59,10.19,2.38a3.22,3.22,0,0,0,.49.25c1.8,0.37,1.62.17,2.71,0.36a241.24,241.24,0,0,0,40.81,3.72H244s-0.07.11,0,.14a0.55,0.55,0,0,0,.74,0,1.26,1.26,0,0,1,1.12,0c1.21-.08.88-0.21,1.63-0.27,8.52-.62,17-1.17,25.55-1.89,3.48-.3,6.93-1,10.4-1.47h0l2.45-.4h0s2-.45,1.9-0.38h0l16.93-4h0L308,463h0c3.15-1,6.32-2,9.47-3,1.11-.36,2.21-0.76,3.36-1.16h0s2.83-1.07,2.88-1.08h0c5.86-2.53,11.79-4.89,17.59-7.53,4.34-2,8.53-4.27,12.78-6.42h0l3.62-2.17h0c1.29-.77,2.68-1.58,4.05-2.41s2.71-1.66,4.15-2.55h0s0,0,0,0l2.83-1.86h0a229.48,229.48,0,0,0,62.56-61.19c0.28-.4.58-0.78,0.86-1.16h0l0.77-1.13h0c1.81-2.86,3.65-5.67,5.4-8.53s3.4-5.75,5-8.53h0l1.23-2.43h0c1-1.71,1.84-3.46,2.73-5.21a3.54,3.54,0,0,1,1.71-1.67,3.44,3.44,0,0,0,.28-1.57,2.45,2.45,0,0,1,.08-0.8,25.7,25.7,0,0,1,1.3-2.88h0v0h0l1.57-3.34h0l3.8-9h0s0.5-1.16.55-1.4a7.63,7.63,0,0,1,.49-1.42c1.53-4.57,3.19-9.09,4.64-13.68,1.25-4,2.29-8,3.43-12h0s0.26-1,.4-1.76l0.29-1.42h0a235.41,235.41,0,0,0,5.39-37.15,229.25,229.25,0,0,0-2.14-49.09c-0.37-2.46-.78-4.9-1.17-7.39h0l-0.19-1.19-0.32-1.33h0c-0.63-2.73-1.18-5.47-1.78-8.34h0s-0.4-2-.46-2.39h0L464.89,187h0l-8-25.06h0L456.14,160a9.79,9.79,0,0,1-.69-1.21,227.85,227.85,0,0,0-16.51-33c-2.4-3.94-4.94-7.79-7.33-11.56l0.16,0a5.49,5.49,0,0,1-1.07-1.36h0c-3.1-4.05-6.14-8-9.21-12a3.35,3.35,0,0,1-.86-1.62,2.49,2.49,0,0,1-1.24-1.3,3.73,3.73,0,0,1-1.11-1,228.82,228.82,0,0,0-23.95-24.49,5.14,5.14,0,0,0-1-.65h0l-0.25-.27L392,70.34c-0.37-.33-0.9-0.66-1.27-0.94-7.24-5.5-14.34-11.21-21.85-16.33a212,212,0,0,0-45-23.05c-3.28-1.23-6.29-2.41-9.81-3.67h0a4.29,4.29,0,0,0-.88-0.26,2,2,0,0,1-.38,0,3.1,3.1,0,0,1-.32,0,6,6,0,0,1-.64-0.18c-0.62-.18-1.24-0.41-1.87-0.58l-17-4.46c-1.73-.45-3.45-0.93-5.18-1.39l0,0c-1.15-.11-2.32-0.13-3.45-0.34a230.66,230.66,0,0,0-61.52-2.73,223.86,223.86,0,0,0-50.29,10.29c-3.85,1.26-7.67,2.64-11.3,3.89M259.76,405l9,3.67-3.72,9Zm9,24.78-8.94,3.71L265,420.86Zm-9.18-26.24a1.71,1.71,0,0,1-.74-0.88c-1.13-2.68-2.23-5.37-3.35-8.09,4.25,0.94,11.22,8.08,12.61,12.53C265.13,405.93,262.32,404.78,259.53,403.58Zm-2-.82-12.65-5.22,8.95-3.74Zm-13.69-6.17a1.36,1.36,0,0,1-1.24-.46c-0.47-1.45-.78-3-1.18-4.61a28.84,28.84,0,0,1,11.16,1.5C249.37,394.34,246.61,395.52,243.81,396.6Zm-2.27,2.31c2.17,4.11,6,6.25,9.8,8.27,9.87,5.21,8.45,19.3,1.43,24.82-7.23,5.68-20.55,4.31-23.94-7.84-1.89-6.79-.27-12.4,5.2-16.87,0.27-.22.51-0.46,0.85-0.76l-1.16-1.4c-6.13,4.21-9.28,10.85-6.88,19.33,1.94,6.86,6.25,11.37,13.4,12.52s13-1.11,17.09-7.13c3.86-5.73,4.11-12,1.24-18.24-1.19-2.62-3.38-4.33-5.74-5.84s-4.66-3-6.91-4.58a15,15,0,0,1-2.11-2.27l0.34-.34c4.5,1.86,9,3.7,13.48,5.6a2.14,2.14,0,0,1,.9,1.11c1.84,4.35,3.66,8.72,5.41,13.1a2.72,2.72,0,0,1,0,1.84q-2.63,6.58-5.42,13.1a2.7,2.7,0,0,1-1.32,1.26q-6.45,2.76-13,5.37a2.89,2.89,0,0,1-2,0q-6.44-2.57-12.82-5.32a3.13,3.13,0,0,1-1.5-1.48q-2.78-6.44-5.38-13a2.69,2.69,0,0,1,0-1.82c1.74-4.34,3.54-8.65,5.36-13a2.35,2.35,0,0,1,1-1.23C233.06,402.39,237.24,400.68,241.54,398.9ZM207.24,383.3L230.77,393A30.06,30.06,0,0,0,217,406.81Zm9,24.78L194,417.27l18.36-18.36Zm14.94-13.88c-0.45,1.16-.73,2-1.06,2.75-0.92,2.17-1.4,4.79-2.94,6.35s-4.11,2-6.24,2.85c-0.78.33-1.57,0.63-2.74,1.1A28.57,28.57,0,0,1,231.15,394.2ZM226.74,405l-5.24,12.68-3.7-9Zm-5.24,15.85,5.26,12.67-9-3.72ZM241,397.81l-12,5,3.69-9,8.32,3.45Zm-1.92-7.33-5.5,1.29,6.82-16.49Zm1,5c-0.52-.16-0.85-0.24-1.16-0.37a30.33,30.33,0,0,1-4.64-2.23l5.13-1.23Zm-2.31-22,3.05-3C240.45,373.2,239.91,373.74,237.78,373.44Zm1.07,2.34L232,392.23l-9.74-4a21,21,0,0,0,1.88-1.45c3.22-3.18,6.41-6.39,9.61-9.6C235.76,375.22,235.76,375.22,238.85,375.79Zm-5.84.45c-3.59,3.6-7.2,7.18-10.77,10.81a1.5,1.5,0,0,1-2,.37c-4.95-2.1-9.92-4.14-15.23-6.35,0.31,0.84.51,1.42,0.74,2,1.83,4.41,3.65,8.82,5.53,13.21a1.62,1.62,0,0,1-.4,2.1q-26.51,26.46-53,53c-0.23.23-.5,0.43-0.92,0.79V343.59a131.46,131.46,0,0,0,76.67,31.75A9.62,9.62,0,0,1,233,376.24Zm-17.17,33.31a30.6,30.6,0,0,0,.05,19.51l-23.57-9.75Zm1.08,0.71a10.28,10.28,0,0,1,.66,1.1c0.93,2.22,1.92,4.42,2.72,6.68a4,4,0,0,1,0,2.54c-0.93,2.53-2,5-3.07,7.49A26.17,26.17,0,0,1,216.91,410.26Zm13.91,35.27-23.55,9.77L217,431.74A30.09,30.09,0,0,0,230.82,445.52Zm-12.65-14.21c3.26,1.35,6.11,2.53,9,3.73a0.86,0.86,0,0,1,.41.43q1.76,4.2,3.48,8.42A25.94,25.94,0,0,1,218.17,431.31ZM229,435.78L241.66,441l-8.94,3.71Zm8.91,8.1a9.41,9.41,0,0,1,10.68,0,23.43,23.43,0,0,0,3.45,1.47,26.27,26.27,0,0,1-17.95.21A31.24,31.24,0,0,0,237.9,443.89Zm7-2.85,12.65-5.26-3.7,9ZM259,435.45a1.29,1.29,0,0,1,.67-0.55c2.72-1.15,5.44-2.27,8.17-3.4a26,26,0,0,1-12.55,12.83C256.63,441.11,257.8,438.27,259,435.45Zm10.48-3.75,9.77,23.57-23.57-9.76A30.08,30.08,0,0,0,269.49,431.7Zm-2.85-9.91a5.15,5.15,0,0,1,0-5.09c1-2.05,1.81-4.23,2.81-6.63a28.45,28.45,0,0,1,0,18.4C268.47,426,267.7,423.85,266.64,421.79Zm4-12.29,23.6,9.76L270.63,429A30.39,30.39,0,0,0,270.6,409.51Zm-0.3-1.43,3.77-9.14,18.2,18.22Zm-0.8-1.24A29.93,29.93,0,0,0,255.7,393l23.52-9.75Zm-15-14.6-6.82-16.45c1.89-.33,3.41-0.58,4.94,1.07,3.63,3.9,7.49,7.58,11.38,11.45Zm-9.13-22.43,3.49,3.52C246.55,373.91,246.76,374.12,245.32,369.81Zm7.51,21.68-11.35-1.59c-0.65-3,.75-14.79,2.48-19.81ZM232.78,101a36.48,36.48,0,0,0,21,0l-10.5,18.19Zm7.44,15.52-2.58-2.5C239.68,113.82,239.5,115.6,240.22,116.49Zm-28.29-33-19.69-7.15L208.3,62.85A36.59,36.59,0,0,0,211.93,83.48Zm66.35-20.61,16,13.45-19.76,7.2A36.62,36.62,0,0,0,278.28,62.87Zm-15.5,24.94,8-13.83,1.8,10.25Zm9.05-2a31.3,31.3,0,0,1-15,12.32,43.85,43.85,0,0,0,2.67-4.73,9,9,0,0,1,6.66-5.59A55.71,55.71,0,0,0,271.82,85.81Zm0.08-12.4A2.45,2.45,0,0,1,272,72c1.57-2.84,3.22-5.64,4.84-8.46a29.53,29.53,0,0,1-3.31,18.8l-0.57-3.12C272.58,77.27,272.22,75.35,271.9,73.42Zm-0.52-3L268.6,54.75l8,6.7Zm-1.21.3a4.22,4.22,0,0,1-.48,2.54q-3.93,7-8.06,14a4,4,0,0,1-1.85,1.57q-7.68,2.91-15.44,5.62a3.47,3.47,0,0,1-2.14,0q-7.82-2.75-15.58-5.66A3.48,3.48,0,0,1,225,87.43q-4.22-7.14-8.28-14.38a3.45,3.45,0,0,1-.35-2.1q1.34-8.11,2.84-16.19a3.71,3.71,0,0,1,1.14-2q6.18-5.32,12.49-10.48a4.06,4.06,0,0,1,2.28-.83c2.71-.1,5.43,0,8.15,0,2.26,0,4.54.11,6.79,0a6.1,6.1,0,0,1,4.73,1.69c3.7,3.26,7.56,6.34,11.28,9.57a4.21,4.21,0,0,1,1.3,2.21Q268.89,62.8,270.17,70.77Zm-55-.3-5.2-9,8-6.7Zm-0.53,1.59a1.43,1.43,0,0,1,.08.87c-0.53,3.14-1.09,6.29-1.63,9.43a29.25,29.25,0,0,1-3.33-18.86C211.39,66.35,213,69.19,214.65,72.06Zm1,2.46,0.34-.11,7.75,13.39L214,84.24Zm8.57,14.76a1.4,1.4,0,0,1,.67.57c1.64,2.8,3.26,5.61,5.09,8.79a32.07,32.07,0,0,1-14.92-12.68C218.17,87.05,221.22,88.15,224.27,89.28Zm2.23,0.81,15,5.45-9.79,3.56Zm13.23,7.34a7.69,7.69,0,0,1,7.13,0c1.88,0.91,3.92,1.49,5.89,2.21a29,29,0,0,1-19,0C235.77,98.94,237.82,98.33,239.73,97.43Zm5.79-1.72,0-.35L260,90.09c-1.77,3.07-3.34,5.82-5,8.55a1,1,0,0,1-.88.23C251.3,97.83,248.41,96.76,245.52,95.7Zm9.59,5.44a1.07,1.07,0,0,1,1-.28c1.42,0.46,2.82,1,4.38,1.58a12.1,12.1,0,0,1-.76,1c-2.44,2.45-4.94,4.86-7.31,7.37a3,3,0,0,1-3.43,1C251,108.13,253.05,104.63,255.11,101.15Zm1.77-1.29a36.82,36.82,0,0,0,16.06-13.5L276.59,107ZM274,85L279.63,83l-5.12,5.26Zm-6.59-43.49h20.71l-10.42,18A36.38,36.38,0,0,0,267.37,41.55Zm8.72,17.87a36.72,36.72,0,0,0-3.5-2.86,10.42,10.42,0,0,1-5.3-9,35.36,35.36,0,0,0-.76-4.72A29.41,29.41,0,0,1,276.09,59.42Zm-9.27-7.75L254.7,41.5H265ZM253.49,40.2a1.18,1.18,0,0,1-.67-0.29c-2.5-2.08-5-4.17-7.76-6.5,5.79-.08,15,3.33,18.48,6.8C260.05,40.21,256.77,40.22,253.49,40.2Zm-2.3-.06H235.37l7.91-6.64Zm-13.12-3.8a11.25,11.25,0,0,1-10.7,3.92,28.67,28.67,0,0,0-4.16,0c5.28-4.28,11.28-6.39,18.36-6.94A37.81,37.81,0,0,0,238.06,36.34Zm-6.14,5.1L219.73,51.67c0.58-3.36,1.06-6.29,1.63-9.2a1.47,1.47,0,0,1,.95-1C225.37,41.41,228.42,41.44,231.93,41.44ZM218.36,52.28a1.88,1.88,0,0,1-.58,1c-2.4,2.06-4.83,4.08-7.26,6.12a31.14,31.14,0,0,1,9.61-17C219.5,46,219,49.13,218.36,52.28Zm-9.48,7.28-10.39-18h20.7A36.14,36.14,0,0,0,208.88,59.56Zm3,25.22a1.23,1.23,0,0,1,.6,1,21.05,21.05,0,0,1-.47,2.63c-0.37-.29-0.61-0.45-0.81-0.65a44.45,44.45,0,0,1-4.5-4.84C208.41,83.5,210.15,84.09,211.86,84.78Zm1.74,1.59a36.73,36.73,0,0,0,16.08,13.47L210,107Zm17.57,14.22,6.42,11.14a2.88,2.88,0,0,1-3.31-.85c-2.67-2.79-5.44-5.47-8.35-8.36Zm17.67,13.31-2.56,2.68C247,115.64,246.92,114,248.84,113.9Zm78.06,42.16q-22.87,0-45.75,0a3.54,3.54,0,0,1-2.77-1.13q-16.08-16.16-32.22-32.26c-0.38-.38-0.74-0.78-1.37-1.44a122.22,122.22,0,0,1,84,34.79H326.9Zm2.7,1.32v48.36l-48.34-48.36h48.34Zm-1.78,135.14h-169l84.48-146.32Zm-2.42-6.6,4.23-4.3v11.6Zm-10.17,8c-0.45.49-.76,0.85-1.1,1.19q-17,17-33.95,34a3.21,3.21,0,0,1-2.5,1q-34.37,0-68.73,0a3.48,3.48,0,0,1-2.25-.82q-17.31-17.19-34.54-34.47c-0.24-.24-0.45-0.51-0.81-0.91H315.23ZM242.71,143.57a4.62,4.62,0,0,1-.51,2.13q-2.63,4.75-5.44,9.4a2.11,2.11,0,0,1-1.45,1c-8.6.06-17.2,0-25.8,0h0c-0.08,0-.15,0,0,0h0l33.22-33.2v4.21C242.73,132.6,242.75,138.08,242.71,143.57ZM250,155.22c-1.93-3.24-3.81-6.51-5.67-9.78A3,3,0,0,1,244,144q0-10.42,0-20.83a1.83,1.83,0,0,1,0-.35l33.24,33.26c-8.61,0-17.31,0-26,0A1.8,1.8,0,0,1,250,155.22Zm-9.39-32.7q-16.28,16.29-32.6,32.55a3.49,3.49,0,0,1-2.18,1c-15.51.07-31,.07-46.52,0.08-0.35,0-.7,0-1.48-0.1a122.06,122.06,0,0,1,84-34.79C241.21,121.87,240.91,122.2,240.59,122.52Zm-35.43,34.94L157,205.64V157.46h48.21Zm-47.41,49.65q24.37-24.46,48.82-48.83a3.11,3.11,0,0,1,1.92-.91c8.66-.06,17.33-0.05,26-0.05,0.24,0,.47,0,1,0.09L162,284.75c-1.67-1.71-3.2-3.23-4.65-4.83a2.19,2.19,0,0,1-.39-1.37q0-34.75,0-69.5A3.05,3.05,0,0,1,157.76,207.11ZM157,281.6l4.2,4.49-3.94,6.83-0.26,0V281.6Zm0,12.21c4.05,0,8,0,11.89,0a1.88,1.88,0,0,1,1.14.57Q187.6,312,205.16,329.53a4.31,4.31,0,0,1,.35.51H157V293.81Zm2.23,37.58q23.27,0,46.54,0a3.07,3.07,0,0,1,2,.76q16.72,16.61,33.36,33.31c0.14,0.14.25,0.29,0.68,0.8-32.58-.88-60.29-12.42-84-34.7C158.51,331.47,158.86,331.39,159.22,331.39ZM243,365.3l-33.79-33.82h67.62Zm3-.31q16.28-16.29,32.55-32.59a3.38,3.38,0,0,1,2.64-1.09q23,0,45.91,0h1.81a121.68,121.68,0,0,1-38.71,25.6,120.35,120.35,0,0,1-45.31,9.26C245.4,365.62,245.69,365.29,246,365Zm35.07-35c0.46-.5.78-0.86,1.13-1.21q16.92-16.93,33.82-33.86a3.46,3.46,0,0,1,2.76-1.13c3.61,0.07,7.22,0,10.9,0V330H281.06Zm47.75-49.61c-1.22,1.46-2.61,2.78-4.1,4.34L251.22,157.42c0.61,0,1-.11,1.43-0.11,8.36,0,16.72,0,25.08,0a3.48,3.48,0,0,1,2.21.92q24.46,24.36,48.82,48.81a3.47,3.47,0,0,1,.91,2.21q0.08,34.44,0,68.89A3.78,3.78,0,0,1,328.81,280.37Zm0.88-125.23c-23.93-22.59-52-34.23-84.79-35.14,2-2,3.83-3.91,5.71-5.74a1.68,1.68,0,0,1,1.13-.18A128.16,128.16,0,0,1,317.26,137c4,2.75,7.67,5.87,11.41,8.91a3.26,3.26,0,0,1,1,2.15C329.77,150.26,329.69,152.52,329.69,155.14Zm-0.19-11.31a131.71,131.71,0,0,0-76.86-31.72c2-2,3.75-3.74,5.53-5.48,1.22-1.19,2.32-3,3.74-3.34s3.2,0.84,4.8,1.42c3.74,1.34,7.46,2.72,11.42,4.16-1-5.72-1.89-11.18-3-16.6a4.2,4.2,0,0,1,1.2-3.95,29.4,29.4,0,0,1,15.73-10c1.49-.39,2.92-1,4.55-1.63l-4.47-3.83L329.5,35.61V143.83ZM329.23,33.4L290.81,71.8,278.15,61.18l12.08-21H266l-4-22.86A225.59,225.59,0,0,1,329.23,33.4Zm-64.59,5.85A36.44,36.44,0,0,0,245,32.08l16-13.46Zm-3.89-22L243.28,31.92,225.81,17.27A237.58,237.58,0,0,1,260.74,17.26ZM241.19,31.74a97.59,97.59,0,0,0-10,2.56A93.4,93.4,0,0,0,222,38.75l3.54-20.12ZM224.52,17.38c-0.61,3.53-1.18,6.88-1.77,10.23-0.66,3.76-1.4,7.51-2,11.29a1.33,1.33,0,0,1-1.64,1.35c-6.95,0-13.9,0-20.84,0h-1.95L208.4,61.17,195.9,71.68,157.58,33.33A225.42,225.42,0,0,1,224.52,17.38ZM156.93,35.7L194.25,73l-4.36,3.69c2.42,0.89,4.62,1.88,6.91,2.49,4.67,1.25,8.24,3.94,11.67,7.3,2.63,2.58,3.4,4.9,2.49,8.4-1.07,4.12-1.58,8.4-2.32,12.61-0.06.34-.06,0.68-0.1,1.24,0.75-.25,1.35-0.43,1.94-0.64,4.35-1.58,8.68-3.18,13-4.71a2,2,0,0,1,1.71.15c2.84,2.71,5.59,5.51,8.59,8.52a132.3,132.3,0,0,0-76.9,31.84V35.7ZM155.66,160.1q0,23,0,45.92a3.48,3.48,0,0,1-.83,2.24q-16.49,16.62-33.08,33.14c-0.17.17-.37,0.33-0.88,0.79a121.74,121.74,0,0,1,34.81-84C155.66,159.14,155.66,159.62,155.66,160.1Zm-0.11,49.78v68.06l-34-34.06Zm0-54.87-3.43-3.86,3.43-3.27V155Zm-1.12,1.06h-7l3.34-3.54Zm-6.3,1.28c2,0.12,3.92,0,5.89.06a1.61,1.61,0,0,1,.41.19c-22.35,23.74-34,51.79-34.89,84.63-2-2-3.85-3.8-5.59-5.66a2.34,2.34,0,0,1-.28-1.55,121.6,121.6,0,0,1,3.21-21.45,129.36,129.36,0,0,1,28-54.77A3.57,3.57,0,0,1,148.15,157.35ZM113.5,244.41h4.64L113.5,249v-4.63Zm0-1.41v-4.57L118,243h-4.49Zm-1.79-9.14-76.3-76.35h108Q115.19,190.77,111.68,233.85Zm0,20q3.46,42.78,31.85,76.35H35.3Zm8.14,30.52a127.72,127.72,0,0,1-6.17-31.74,2.73,2.73,0,0,1,.92-2.38c1.6-1.53,3.11-3.14,5-5,0.88,32.93,12.56,61,35.17,85-2.89,0-5.44.05-8,0a2.57,2.57,0,0,1-1.37-1A128.5,128.5,0,0,1,119.83,284.34Zm35.81,47.18v8.29l-8.34-8.29h8.34Zm-23-35.22c-8.78-18.3-11.9-37.83-11.66-50.81,0.42,0.36.75,0.6,1,.9q16.4,16.39,32.78,32.82a3.05,3.05,0,0,1,.87,1.91q0.08,23.49,0,47c0,0.28,0,.57-0.06,1.17A123,123,0,0,1,132.62,296.31ZM155.6,34c0,1,0,1.53,0,2.07q0,53.71.08,107.43a3.41,3.41,0,0,1-1.21,2.71c-3.08,3-6,6.07-9.11,9a3.28,3.28,0,0,1-2.05.89q-54.24.1-108.48,0.1H33.43C58.32,99.54,98.83,59,155.6,34ZM32.8,157.75l0.61-.31a9.45,9.45,0,0,0,.89,1.23q38.07,38.09,76.18,76.15a3.23,3.23,0,0,1,1.07,2.62c-0.09,4.33,0,8.66-.05,13a2.86,2.86,0,0,1-.65,1.84q-38.57,38.66-77.2,77.26c-0.14.14-.3,0.26-0.74,0.63Q-0.79,243.7,32.8,157.75ZM155.74,453.56A228.24,228.24,0,0,1,33.61,331.48h1.83q53.78,0,107.56-.1a3.41,3.41,0,0,1,2.74,1.18c2.92,3.05,5.93,6,9,9a2.9,2.9,0,0,1,1,2.33q0,16.84,0,33.69,0,37,0,74C155.74,452.14,155.74,452.72,155.74,453.56Zm1.17-306.33a2,2,0,0,1,.77-1.19,129.08,129.08,0,0,1,65.65-30.71c3.82-.59,7.7-0.86,11.55-1.25a1.57,1.57,0,0,1,1.11.24c1.87,1.79,3.7,3.63,5.77,5.68-32.91.92-61,12.59-84.9,35.17C156.87,152.31,156.83,149.77,156.9,147.23Zm0,192.5c0-2.35,0-4.7,0-7.36,23.91,22.56,52,34.23,84.85,35.11-2,2-3.81,3.88-5.68,5.62a2.38,2.38,0,0,1-1.55.23,125.57,125.57,0,0,1-35-7.24,128.77,128.77,0,0,1-41.87-24.69,3.42,3.42,0,0,1-.69-1.08A1.48,1.48,0,0,1,156.91,339.72ZM157,454.09c0.48-.51.83-0.91,1.2-1.29q15.85-15.86,31.69-31.74a1.87,1.87,0,0,1,2.45-.47c7.46,3.14,14.94,6.2,22.42,9.3,0.46,0.19.9,0.42,1.44,0.67l-11.15,27,27-11.19L242.29,471A226.57,226.57,0,0,1,157,454.09Zm86.27,16.15-9.58-23.13a80.73,80.73,0,0,0,9.64,1.08,78.25,78.25,0,0,0,9.53-1.11Zm1,0.8,10.21-24.7,27,11.17-11.18-27c0.66-.29,1.25-0.55,1.84-0.8q11.14-4.63,22.28-9.27a1.52,1.52,0,0,1,2,.28q16.26,16.33,32.57,32.6c0.17,0.17.32,0.37,0.63,0.74A226.66,226.66,0,0,1,244.25,471ZM329.67,452l-0.39.34a10,10,0,0,0-1-1.34q-26.22-26.24-52.47-52.44a2.05,2.05,0,0,1-.53-2.69c2.06-4.8,4-9.64,6.15-14.8l-2.95,1.23c-4.13,1.71-8.26,3.45-12.41,5.12a1.64,1.64,0,0,1-1.42-.11c-3.92-3.83-7.78-7.72-12-11.88a132.34,132.34,0,0,0,76.93-31.86V452Zm0-111.75a2.53,2.53,0,0,1-1,1.38,128.35,128.35,0,0,1-44.88,25.61,123.19,123.19,0,0,1-31.9,6.1,3,3,0,0,1-2-.73c-1.71-1.54-3.3-3.2-5.24-5.1,33-.89,61.08-12.59,85-35.2C329.75,335.12,329.81,337.67,329.71,340.22ZM330.86,84.4q0-24.09,0-48.18c0-.63,0-1.27,0-2.32,56.77,24.9,97.32,65.41,122.3,122.12h-2q-53.77,0-107.54.05a3.36,3.36,0,0,1-2.73-1.15q-4.26-4.49-8.75-8.75a3.53,3.53,0,0,1-1.22-2.86Q330.9,113.85,330.86,84.4Zm0.71,195q16.71-16.81,33.5-33.55c0.13-.13.29-0.23,0.76-0.61-0.94,32.57-12.43,60.3-34.71,83.92-0.07-.65-0.15-1-0.15-1.37q0-23.33,0-46.66A2.67,2.67,0,0,1,331.57,279.44ZM331.07,278V210.15L365,244.08Zm-0.06-123v-7.06l3.62,3.46Zm4.49-2.43,3.79,3.42h-7.14Zm4.31,4.84a2.83,2.83,0,0,1,1.47,1.13A128.89,128.89,0,0,1,372.91,235a3,3,0,0,1-.71,2c-1.57,1.75-3.27,3.38-5.16,5.31-0.9-33-12.59-61.11-35.21-85C334.71,157.27,337.26,157.21,339.81,157.32ZM373.07,243h-4.48l4.48-4.46V243Zm0,1.41v4.67l-4.72-4.67h4.72Zm-42.05,87h8.09L331,339.23v-7.81Zm0.89-1.32c22.52-23.83,34.19-51.93,35.1-84.82,2,2,3.8,3.72,5.5,5.56a2.66,2.66,0,0,1,.38,1.8,126.46,126.46,0,0,1-3.36,21.89,128.53,128.53,0,0,1-28.48,54.71,2.36,2.36,0,0,1-1.46.83C337.17,330.14,334.7,330.1,331.93,330.1Zm43-76.4L451.13,330H343.2Q371.43,296.65,374.9,253.7Zm0-19.77A131.73,131.73,0,0,0,343,157.35H451.51ZM331,158.17c22.38,23.7,33.89,51.45,34.48,83.78-0.36-.33-0.72-0.66-1.07-1q-16.24-16.23-32.45-32.5a3.66,3.66,0,0,1-1-2.32c-0.06-15.41-.06-30.82-0.06-46.23C330.91,159.47,331,159,331,158.17Zm0,295.51c0-1,0-1.59,0-2.15q0-53.77,0-107.55a3.36,3.36,0,0,1,1.17-2.71c3.1-2.95,6-6.05,9.11-9a3.06,3.06,0,0,1,1.88-.89q54.45-.08,108.91-0.06c0.3,0,.59,0,1.23.06C428.4,388.07,387.82,428.7,331,453.68Zm122.86-123.8-0.66.39a7,7,0,0,0-.86-1.4q-38.07-38.1-76.18-76.16a3.27,3.27,0,0,1-1.08-2.62c0.08-4.33,0-8.66.06-13a3.08,3.08,0,0,1,.73-2q38.41-38.5,76.88-76.95c0.21-.21.44-0.4,0.94-0.85Q487.47,243.92,453.85,329.88Z" transform="translate(-2 -2)"/>
</g>
<path d="M209.48,156.1h0Z" transform="translate(-2 -2)"/>
<path class="cls-1" d="M45.92,233.35v1.93h27c-0.31.4-.42,0.57-0.56,0.71-5.19,5.2-10.37,10.41-15.61,15.56a3.18,3.18,0,0,1-2,.72c-2.91.08-5.82,0-8.81,0v1.85H85.2v-1.92H59.32l-0.27-.47a6.93,6.93,0,0,0,1.13-.76c4.92-4.9,9.85-9.8,14.73-14.74a3.27,3.27,0,0,1,2.65-1.05c2.55,0.07,5.09,0,7.65,0v-1.89H45.92Z" transform="translate(-2 -2)"/>
<path d="M402.31,253.81l-1.42-1.42,20.3-20.3,20.17,20.17-1.31,1-18.62-18.63Z" transform="translate(-2 -2)"/><path d="M45.92,233.35H85.21v1.89c-2.56,0-5.11,0-7.65,0a3.27,3.27,0,0,0-2.65,1.05c-4.88,4.95-9.8,9.84-14.73,14.74a6.93,6.93,0,0,1-1.13.76l0.27,0.47H85.2v1.92H45.95v-1.85c3,0,5.9,0,8.81,0a3.18,3.18,0,0,0,2-.72C62,246.4,67.17,241.19,72.36,236c0.14-.14.25-0.31,0.56-0.71h-27v-1.93Z" transform="translate(-2 -2)"/>
<path d="M363.84,139.41h-2V116.12l-11.51,11.52-1.27-1.42,27.73-27.73,5.67,21.15-18.66-5v24.74Zm12-37-10.56,10.57,14.42,3.86Z" transform="translate(-2 -2)"/>
<path d="M91.72,116.75h24.82V91.95l27.3,27.3H119v24.87Zm47.19,0.39L118.75,97v20.16h20.16Zm-22,1.71H96.47l20.44,20.44V118.85Z" transform="translate(-2 -2)"/><path d="M286.85,243.76a43.51,43.51,0,1,1-43.49-43.58A43.56,43.56,0,0,1,286.85,243.76ZM201,243.65a42.3,42.3,0,1,0,42.32-42.26A42.34,42.34,0,0,0,201,243.65Z" transform="translate(-2 -2)"/><path d="M247,190.5v3.63l3.15-1.48v2.88l-2.84-1.41-0.39.37c0.4,1.23-.82,2.82.87,3.73,1.06,0.57,2.69-.38,3.7-2.05,0,0.59.1,1,.11,1.43s0,0.79-.08,1.25h-6.63c1.27-1.21,1.26-7.69,0-8.93h6.35V192C250.34,190,248.69,190.45,247,190.5Z" transform="translate(-2 -2)"/><path d="M236.14,198.87h-2.7c0.83-.77,1-3.1.12-3.36a4.2,4.2,0,0,0-3.1.15c-1.06.68-.79,2.42,0.28,3.19h-2.6c1.14-2.85,2.81-5.58,2.71-9h1.9Zm-5.49-4.27h2.65l-1.37-4Z" transform="translate(-2 -2)"/><path d="M206.1,270.91l1,1.61c-3.09.34-6.19,0.45-9.23,1.81L197,272.94l6.14-7.23,1.09,1.84a4.27,4.27,0,0,0-1.54.67c-1.32,1.49-2.53,3.07-3.73,4.73C201.22,272,204,272.71,206.1,270.91Z" transform="translate(-2 -2)"/><path d="M243.43,196c0.55,1.66.11,2.43-1.34,2.75-1.72.38-3.28,0.31-4.55-1.07A5.18,5.18,0,0,1,237,192a3.73,3.73,0,0,1,3.77-2.17c0.9,0,1.8,0,2.8,0v2.31c-0.72-.53-1.28-1-1.89-1.38a2.41,2.41,0,0,0-1-.3c-1.38-.16-2.54.81-3,2.44-0.55,2.09.17,4.38,1.61,5.08s2.47,0.26,3.56-1.27C243,196.55,243.14,196.37,243.43,196Z" transform="translate(-2 -2)"/><path d="M259.1,196.35v2.46h-6.36c1.29-1.14,1.29-7.71-.12-8.88h3a11.26,11.26,0,0,0-.75,2.4,24.08,24.08,0,0,0,0,4.22,2.46,2.46,0,0,0,.78,1.63,6.75,6.75,0,0,0,2.56-.74,2.59,2.59,0,0,0,.62-1.13Z" transform="translate(-2 -2)"/><path d="M202.11,281.71l-0.86-1.45c1.32-.79,2.61-1.55,3.88-2.32s2.46-1.52,3.76-2.33l0.91,1.61A20.25,20.25,0,0,0,202.11,281.71Z" transform="translate(-2 -2)"/><path d="M202.09,264l-7.74,4.39-0.64-1.07,7.63-4.66Z" transform="translate(-2 -2)"/><path d="M285.52,278c-0.68-2-1.47-2.22-3.19-1.07-0.5.33-1,.68-1.51,1-0.94.55-2,.75-2.72-0.17a4.1,4.1,0,0,1-.62-2.57c0.56,0.58,1,1.54,1.69,1.66a5.13,5.13,0,0,0,2.43-.75,6.64,6.64,0,0,1,1.29-.73,3.84,3.84,0,0,1,2.34.13A1.69,1.69,0,0,1,285.52,278Z" transform="translate(-2 -2)"/><path d="M293.64,263.86c-0.56-2-1.35-2.29-3-1.26-0.59.37-1.17,0.78-1.77,1.13a2.1,2.1,0,0,1-2.75-.26c-0.74-.71-0.82-1.4-0.34-2.69,0.86,2.31,1.66,2.55,3.8,1.19a4.42,4.42,0,0,1,1.41-.83,3.75,3.75,0,0,1,2.34.08C294.2,261.75,294.34,262.78,293.64,263.86Z" transform="translate(-2 -2)"/><path d="M198.94,258.67c1.25,1,.28,1.88-0.18,2.74s-1,1.82-1.54,2.72c-1.93-2-3.49-1.59-4.54,1.22-0.6-1-.74-2.06.24-2.86s2.3-.78,3.55.31Z" transform="translate(-2 -2)"/><path d="M282.9,266.24a2.47,2.47,0,0,1,3.27-.55c1.1,0.59,2.16,1.25,3.27,1.82a19.23,19.23,0,0,0,1.94.75l-1.27,2.11C289.51,268.64,285.63,266.43,282.9,266.24Z" transform="translate(-2 -2)"/><path d="M281.83,267.72c0.41,2.21,4.1,5,6.79,5.28l-0.78,1.42c-1.54-1-3-2-4.58-2.92A2.9,2.9,0,0,1,281.83,267.72Z" transform="translate(-2 -2)"/><path d="M204.61,276c-2.5-1.12-3.8-.37-4.28,2.24a2.28,2.28,0,0,1,.48-3.43C202.09,274,203.43,274.34,204.61,276Z" transform="translate(-2 -2)"/><path d="M278.23,273.68l1.05-1.79,2.09,1.14Z" transform="translate(-2 -2)"/><path d="M289.5,258.86l-3.08.61,1-1.79Z" transform="translate(-2 -2)"/><path d="M283.93,280.83l-2-1.3,2.93-.41Z" transform="translate(-2 -2)"/><path d="M290.13,265.33l2.92-.42-0.94,1.69Z" transform="translate(-2 -2)"/><path d="M224.71,171.81l-2-1.16,0.05-.33c0.4,0,.79-0.05,1.19-0.1a2.43,2.43,0,0,0,1.79-3.91,5.56,5.56,0,0,0-4.34-2.39c-1.37-.1-2.71,1-2.61,2.14a1.85,1.85,0,0,0,.88,1.38,5.49,5.49,0,0,0,2.08-.18L220.25,170c-0.67-.69-1.31-1.28-1.86-1.95a1.86,1.86,0,0,1-.51-1.18c0.29-2.57,1.81-4.16,3.91-4.23,2.29-.08,4.84,1.81,5.13,4.07a5.86,5.86,0,0,1-.63,2.85A12.66,12.66,0,0,1,224.71,171.81Z" transform="translate(-2 -2)"/><path d="M165.6,256.69l1.46-2.54a44.45,44.45,0,0,0,2.79,3.75c1,1,1.4,2.88,3.66,2.55l-1.17,2.07c-3.16-.22-6.1-1.52-9.48-1l1.66-3c0.4,1.31,1.75,2.36,2.42,1.81a4.4,4.4,0,0,0,1.49-2.58C168.55,256.83,167,256.21,165.6,256.69Zm6,4.59-2.43-2.83-1.23,2.22Z" transform="translate(-2 -2)"/><path d="M199.47,198c0.38,1.31,1.25,2.2,2.27,1.68a4.1,4.1,0,0,0,1.7-2.52c0.2-.84-1.49-1.59-2.83-1.15l1.66-2.78c0.75,2.68,4.53,6.75,6,6.62-0.59,2.06-.66,2.11-2.65,1.78-1.63-.27-3.26-0.6-4.9-0.81a24,24,0,0,0-2.83,0Zm7.21,2.7-2.5-2.87L202.93,200Z" transform="translate(-2 -2)"/><path d="M181.59,229l1.69-2.92c0,2.17,2,2.33,3.22,3s2.37,2.36,4.59.87l-2,3.56C188.61,231.11,183.56,228.24,181.59,229Z" transform="translate(-2 -2)"/><path d="M284.66,210.7c-1.52-2.37-1.93-1.71,0-4.11,1-1.29,2.09-2.53,3.38-4.1-1.53.22-2.73,0.38-3.94,0.57s-2.36.39-3.62,0.6l-0.88-1.56c1.3-.62,2.62-1.15,3.84-1.85s2.38-1.59,3.59-2.43l0.92,1.57-5.9,3.06c2.59,0.33,5-1,7.9-.37L285,208c2-1,4.47-1.29,5.79-3.61l1,1.71a39.65,39.65,0,0,0-4,1.81C286.6,208.61,284.76,208.56,284.66,210.7Z" transform="translate(-2 -2)"/><path d="M318.79,270l-1.39-2.4a21,21,0,0,0,7.42-4.33l0.94,1.66a41.88,41.88,0,0,0-3.92,2C320.7,267.75,318.95,267.9,318.79,270Z" transform="translate(-2 -2)"/><path d="M312.85,242.48l1.06,1.83-7.44,4.23-0.59-1C308,245.56,311.25,245.23,312.85,242.48Z" transform="translate(-2 -2)"/><path d="M271.1,187.49l-0.63-1.09c1.28-.77,2.54-1.49,3.77-2.27s2.86-.92,3.09-3l1.24,2.11Z" transform="translate(-2 -2)"/><path d="M316,265.12l-1.1-1.91a24.44,24.44,0,0,0,7.35-4.39l1.12,1.93C321.17,261,316.67,263.66,316,265.12Z" transform="translate(-2 -2)"/><path d="M302.27,223.94l0.76,1.34-7.43,4.24-0.65-1.08Z" transform="translate(-2 -2)"/><path d="M266.12,161.76c-2.35-.35-3.12.37-3,2.5a9,9,0,0,1,0,2.23c-0.41,2-1.82,2.31-3.29.93a4.45,4.45,0,0,0,1.92-.86,4.49,4.49,0,0,0,.26-2.17c0-.5,0-1,0-1.51a2.12,2.12,0,0,1,1.53-2.17C264.6,160.35,265.36,160.75,266.12,161.76Z" transform="translate(-2 -2)"/><path d="M293.74,226.19a1.89,1.89,0,0,1,.47-2.58c1.16-.93,2.24-0.58,3.32.51l2.29-4c0.89,0.93.88,0.93-.06,2.56-0.53.91-1,1.84-1.39,2.47-0.91-.31-1.86-1-2.63-0.8S294.41,225.54,293.74,226.19Z" transform="translate(-2 -2)"/><path d="M273.46,179.11l2-1.17,1.1,2Z" transform="translate(-2 -2)"/><path d="M308.84,240.15l2-1.18,1.11,2Z" transform="translate(-2 -2)"/><path d="M270.83,182.62l2.84-1.74-0.5,2.11Z" transform="translate(-2 -2)"/><path d="M309.07,241.88L308.52,244l-2.28-.38Z" transform="translate(-2 -2)"/><path d="M266.83,162.8l1.1,1.91L266,165.85Z" transform="translate(-2 -2)"/><path d="M258.87,166l-1-1.66,2.06-1.18Z" transform="translate(-2 -2)"/><path d="M240.54,312.1l0.1,0.11V312.1h-0.1Z" transform="translate(-2 -2)"/><path d="M240.47,312.1h0.06l-0.06-.06v0.06Z" transform="translate(-2 -2)"/><path d="M262.49,305h3l-3.38-9h-2a4.86,4.86,0,0,1,.12,1.71c-0.67,2.1-1.39,4.19-2.22,6.23-0.42,1-1.16,1-1.78.08s-1.29-2.23-2-3.4a2.66,2.66,0,0,0,.93-0.58c0.43-.74,1.17-1.65,1-2.28a2.75,2.75,0,0,0-1.92-1.71c-1.53-.06-3.05-0.09-4.58-0.1v0.11a2.47,2.47,0,0,1,.86,1c-0.31,2.62,1.13,5.49-1.07,7.92h3.34c-1.75-1.21-.65-2.89-1.08-4.46,2.51,0.63,2.5,3,3.6,4.43h5c-1.47-.51-1.25-1.27-1-2.17s0.54-1.6,1.68-1.38c0.84,0.16,2-.49,2.28,1C263.55,303.42,264.11,304.4,262.49,305Z" transform="translate(-2 -2)"/><path d="M207.6,304.05c-0.69-1.08-1.29-2.23-1.92-3.35a2.18,2.18,0,0,1,.4-0.34,2.24,2.24,0,0,0,1.53-2.73c-0.35-1.37-1.48-1.63-2.71-1.63h-3.82c1.49,1.37,1.31,7.57-.34,8.95h3.39c-1.66-1.17-.58-2.83-1-4.48l0.19,0.07v-4.42a18.45,18.45,0,0,1,3.06,1.53,1.68,1.68,0,0,1-.06,1.61,15.9,15.9,0,0,1-2.9,1.33c2.16,0.86,2.34,3,3.34,4.45h1.59v0h0.15l-0.12-.29A1.12,1.12,0,0,1,207.6,304.05Z" transform="translate(-2 -2)"/><path d="M215.83,312.14l0.1,0-0.1,0v0.08Z" transform="translate(-2 -2)"/><path d="M276.81,305a4.55,4.55,0,1,1,4.3-4.59A4.28,4.28,0,0,1,276.81,305Zm3.09-4.11c0-2.49-1-4-2.58-4.33a2.9,2.9,0,0,0-3.23,2.29,8.06,8.06,0,0,0,.06,3.38,2.65,2.65,0,0,0,2.73,2.14,2.92,2.92,0,0,0,2.82-2.28A5.43,5.43,0,0,0,279.91,300.88Z" transform="translate(-2 -2)"/><path d="M223.52,296v2.28c-0.39-.35-0.62-0.54-0.83-0.75a2.84,2.84,0,0,0-4.93,1,4.73,4.73,0,0,0,1.18,5.24,2.33,2.33,0,0,0,3.15-.09,2.2,2.2,0,0,0-.76-2.89h2.82c-0.19.74-.37,1.54-0.61,2.32a2.15,2.15,0,0,1-.58,1.21,4.5,4.5,0,0,1-4.7,0,4.4,4.4,0,0,1-1.9-4.46c0.18-1.86,1-3.48,3-3.87A22.16,22.16,0,0,1,223.52,296Z" transform="translate(-2 -2)"/><path d="M265.53,298.54V296h7v2.05L270,296.28l-0.41.37c0.39,2.75-.58,5.64.61,8.31h-2.51a4.37,4.37,0,0,0,.71-1.51c0.08-2.25,0-4.51,0-6.79C266.94,296.21,266.36,297.28,265.53,298.54Z" transform="translate(-2 -2)"/><path d="M252.3,65.92c-3.23,3.23-6.29,6.35-9.43,9.4a3.8,3.8,0,0,0-1.34,3.14c0.11,2.36,0,4.72,0,7.19h-1.9V46.41h1.9c0,2.5-.08,5,0,7.4a3.91,3.91,0,0,0,1,2.34C245.7,59.42,248.95,62.58,252.3,65.92Zm-10.66-7.65V73.2l7.44-7.41Z" transform="translate(-2 -2)"/><path d="M243.17,221.31a42.44,42.44,0,0,1,27.73,11.21c3.4,3,6.22,6.69,9.3,10.07a1.5,1.5,0,0,1,.21,2.14c-6,8.4-13.39,15.19-23.24,18.8-13,4.77-25.23,2.74-36.67-4.78a53.2,53.2,0,0,1-14.11-13.92,2.15,2.15,0,0,1-.1-2c7.23-10.16,16.34-17.74,28.82-20.48C237.75,221.81,240.48,221.65,243.17,221.31Zm33.05,19.5c-20.54-25.08-50.11-20.91-65.75.09,2.12,2.25,2.08,3.14-.27,5.49,18.57,23.75,48.64,23.29,66.26,0C274.12,244.15,274.06,243.21,276.23,240.81Zm-66.94,1.69-0.69.11-0.08,1.75a3.71,3.71,0,0,0,1.16-.38A5.34,5.34,0,0,0,209.29,242.49ZM278,242.62l-0.86,0a5.1,5.1,0,0,0-.14,1.51,2.62,2.62,0,0,0,1.08.29Z" transform="translate(-2 -2)"/><path d="M255.35,229.94c-2.25-.74-4.49-1.54-6.76-2.22-6.54-2-12.44-.75-17.26,4.1a16.77,16.77,0,0,0,10,28.49,16.78,16.78,0,0,0,18.45-19.48c-0.23-1.42.24-3,.41-4.58,3,4.85,2.78,15.32-4.88,21.8a18.83,18.83,0,0,1-24.82-28.31c7.71-7.08,19.12-5.93,25-.19Z" transform="translate(-2 -2)"/><path d="M249.55,229.89a3,3,0,0,1-3.37,1c-7.37-1.9-14.66,3.09-16,10.82-1.29,7.41,4.24,14.34,12.07,15.13a13.07,13.07,0,0,0,14.07-12.44c0-1.4.81-1.9,1.76-2.47,1.63,4.18-1.75,11.47-6.76,14.62A15.19,15.19,0,1,1,249.55,229.89Z" transform="translate(-2 -2)"/><path d="M246.68,232.68l-0.81,1.67a10.28,10.28,0,0,0-7.18.86,9.62,9.62,0,0,0,5.05,18.07,9.45,9.45,0,0,0,9-8.31c0.17-1.45,1.15-1.08,1.94-1.28,0.72,3.78-2.33,8.61-6.68,10.61a11.65,11.65,0,0,1-14.2-17.38C236.78,232.79,242.26,231,246.68,232.68Z" transform="translate(-2 -2)"/><path d="M245.76,238.18c-4.43-1.48-7.67,1.07-8.4,4.17a6,6,0,0,0,4.74,7.26c3.74,0.73,6.36-1.61,7.28-6.57l1.66,0.6c0.5,3.39-2.33,7.06-6,7.87a7.91,7.91,0,0,1-8.35-3.24,7.61,7.61,0,0,1-.21-8.81c1.83-2.93,4.6-4,8-3.69C246.11,235.93,245.53,237.11,245.76,238.18Z" transform="translate(-2 -2)"/><path d="M243.16,248.21a4.48,4.48,0,0,1-4.47-4.53,4.55,4.55,0,0,1,4.49-4.54,4.62,4.62,0,0,1,4.57,4.64A4.55,4.55,0,0,1,243.16,248.21Z" transform="translate(-2 -2)"/><path d="M288,304.05c-0.69-1.08-1.29-2.23-1.92-3.35a2.18,2.18,0,0,1,.4-0.34,2.24,2.24,0,0,0,1.53-2.73c-0.35-1.37-1.48-1.63-2.71-1.63h-3.82c1.49,1.37,1.31,7.57-.34,8.95h3.39c-1.66-1.17-.58-2.83-1-4.48l0.19,0.07v-4.42a18.45,18.45,0,0,1,3.06,1.53,1.68,1.68,0,0,1-.06,1.61,15.9,15.9,0,0,1-2.9,1.33c2.16,0.86,2.34,3,3.34,4.45h1.59v0h0.15l-0.12-.29A1.12,1.12,0,0,1,288,304.05Z" transform="translate(-2 -2)"/><path d="M210.94,296.6v3.63l3.15-1.48v2.88l-2.84-1.41-0.39.37c0.4,1.23-.82,2.82.87,3.73,1.06,0.57,2.69-.38,3.7-2.05,0,0.59.1,1,.11,1.43s0,0.79-.08,1.25h-6.63c1.27-1.21,1.26-7.69,0-8.93h6.35v2.06C214.26,296.11,212.61,296.55,210.94,296.6Z" transform="translate(-2 -2)"/><path d="M227.28,296.6v3.63l3.15-1.48v2.88l-2.84-1.41-0.39.37c0.4,1.23-.82,2.82.87,3.73,1.06,0.57,2.69-.38,3.7-2.05,0,0.59.1,1,.11,1.43s0,0.79-.08,1.25h-6.63c1.27-1.21,1.26-7.69,0-8.93h6.35v2.06C230.6,296.11,228.94,296.55,227.28,296.6Z" transform="translate(-2 -2)"/><path d="M237.9,304.87c-1-2.71-2.13-5.06-3.12-7.77-0.08,2.58-1.13,5.21.19,7.74h-2.47c1.11-1.17,1.37-6.68.35-8.59h2.82c0.4,1.16.79,2.34,1.21,3.51s0.84,2.25,1.35,3.6c0.65-1.75,0-5.57.61-7.11a4.06,4.06,0,0,1,1.63,0c-1,1.64-1.29,6.8-.55,8.65" transform="translate(-2 -2)"/>
<path d="M243.67,296.64v3.63l3.15-1.48v2.88L244,300.26l-0.39.37c0.4,1.23-.82,2.82.87,3.73,1.06,0.57,2.69-.38,3.7-2.05,0,0.59.1,1,.11,1.43s0,0.79-.08,1.25h-6.63c1.27-1.21,1.26-7.69,0-8.93h6.35v2.06C247,296.15,245.33,296.59,243.67,296.64Z" transform="translate(-2 -2)"/><path d="M242.69,483.38A240.69,240.69,0,0,1,72.5,72.5,240.69,240.69,0,1,1,412.88,412.88,239.11,239.11,0,0,1,242.69,483.38ZM242.69,6A236.69,236.69,0,0,0,75.32,410.05,236.69,236.69,0,0,0,410.05,75.32,235.14,235.14,0,0,0,242.69,6Z" transform="translate(-2 -2)"/></svg>