<svg id="Layer_1" data-name="Layer 1" xmlns="http://www.w3.org/2000/svg" viewBox="0 0 218.55 199.89"><defs><style>.cls-1{fill:#231f20;}</style></defs><title>logo</title><path d="M284.19,452.38a5.33,5.33,0,0,1-1.53-.22c-15.61,29-41.92,45.56-77.63,49-30.77,3-57.07-8.34-79-30.63,2.46-1.94,4.85-3.25,6.45-5.21,2.61-3.17,4.43,2.74,7.18-.15l-4.22-1.69,2.36-2.11c3.46,2.94,6.64,6,10.14,8.56,18.63,13.81,39.51,18.88,62.42,15.61,2.87-.41,5.12-0.67,7.29,2.27,2.57,3.49,8.22,4.34,11.81,2.59,4.29-2.1,7.07-5.39,6.64-10.41-0.19-2.19.71-3.23,2.38-4.18a82,82,0,0,0,26.5-23.64c-0.38,0-.77,0-1.16-0.06l-0.48.06A83,83,0,0,1,234,476.87a1.06,1.06,0,0,1-1.09-.35l7-4.2A78,78,0,0,0,262.1,452.2a5.16,5.16,0,0,1-.55-0.1,5.12,5.12,0,0,1-1.86.34l-0.47,0a85.29,85.29,0,0,1-21.68,19c-2,1.26-4.06,2.31-6.07-.1a2.3,2.3,0,0,0-1.32-.82c-4.22-.48-4-3.44-4-6.59,0-3.86-.08-7.72-0.15-11.58l-0.53,0-0.56,0-0.13,0q0.1,7.23.16,14.46c0,2.16.42,3.46,2.88,4,1.7,0.35,3.22,1.61,4.82,2.47l-0.51,1.33-8.19-2.7V452.37a4.73,4.73,0,0,1-.81-0.08h-0.3a5.71,5.71,0,0,1-.73-0.05l-0.1,0q0,7.2,0,14.4c0,1.26.07,2.52,0,3.77-0.12,2.65.27,4.31,3.75,4s5.84,2.78,5.6,6.16c-0.26,3.62-2.91,5.82-6.65,5.52-3.33-.27-6.07-3.15-5.31-6.46,0.68-2.94-.5-4.76-2.07-6.79-3.47-4.47-6.71-9.12-10.33-13.46-1.74-2.09-1.64-3.17,1.18-4.23l12.13,15.52,0.72-.3V452.37h0a5.34,5.34,0,0,1-.91-0.09l-0.46,0h-0.06v15.62l-10.25-13.47,1.68-2a3,3,0,0,0-1.18,0,5.34,5.34,0,0,1-.7-0.06,5.5,5.5,0,0,1-1.18.12,5.56,5.56,0,0,1-1.1-.11A43.64,43.64,0,0,1,186,462.17,42.64,42.64,0,0,1,151,453.47c-2.83-2.2-4.68-.49-6.8.87L140,457c-5.34,3.57-9.61,8.74-16.3,11-2.15-2.85-4.39-5.59-6.29-8.55-0.41-.63.4-2,0.64-3.11l-1.78.41-0.3-.43,5.09-3.91-2.11,0-4.29,3.28c-0.69-1.15-1.34-2.3-2-3.45l-0.83-.08a4.88,4.88,0,0,1-1.3.32,98.65,98.65,0,0,0,45.8,42.15c26.11,11.64,52.7,12.55,79,1.6,22.6-9.42,39.29-24.14,49.84-43.86A5.58,5.58,0,0,1,284.19,452.38Zm-64.89,33c2.45,2.48,5.33,3.53,8.59,2.31a7.48,7.48,0,0,0,5.16-7.22c0-.79.7-1.57,1.24-2.69,2.43,4.23-1.08,9.82-4.55,11.41-5,2.28-9.66.95-12.71-4.84A7.15,7.15,0,0,1,219.29,485.34Zm-72.11-31.1c14.24,11.33,30,14.2,47,8.76,0.93,0.72,2,1.83,2.22,1.69,0.83-.59,1.29-1.67,2.08-2.37a26.24,26.24,0,0,1,4.91-3.74c0.4-.21,1.79,1.42,2.52,2l-4.15,3,0.75,1.23,4.57-2.51c2.63,3.38,5.66,7.07,8.44,11,1.27,1.77-1.62,7.18-3.86,7.62a78.12,78.12,0,0,1-67.52-19.87c-0.75-.71-1.43-1.5-2.39-2.53Zm70.08,27.88c-5.66,4.24-29.78,3.91-41.73.23-13.78-4.24-25.82-11.11-35.78-21.71C161.82,481.08,187.56,488.26,217.27,482.11Z" transform="translate(-87.66 -303.95)"/><path d="M178.43,308.21c37.62-7.78,69.14,4.84,94.92,33.19l-2.09,2.47c-1.44.06-2.88,0.18-4.33,0.17l-4.15-.05a13,13,0,0,1,6.32,2.67l2.11-2.71c2.27-1.48,4.56-2.93,6.8-4.44,1.44-1,2.81-2,4.9-3.55l1.49,5c-4,2.85-8.06,5.63-11.93,8.65-0.51.4-.15,2.12,0,3.19a11.06,11.06,0,0,1-4.7,10.62c-3.75,2.43-7.52,2.38-12-.72a28.62,28.62,0,0,1,4.77-.32,8,8,0,0,0,8.93-5.35,7.83,7.83,0,0,0-3.69-9.17A7.59,7.59,0,0,0,256,350c-0.93,1.27-1.06,3.1-1.7,4.62a8.41,8.41,0,0,1-2.05,2.88C251,352.72,252,348.82,256,346a10.31,10.31,0,0,1,5.45-2.05c-1.24,0-2.48-.06-3.71-0.1s-2.63.11-3.32-.52a86.06,86.06,0,0,0-27.92-17.24c-0.73-.28-1.41-0.7-2.25-1.13l3.51-2.43c-3.6.93-3.81-1.06-3.71-3.57s0-4.73,0-7.09l-0.93-.2a84.65,84.65,0,0,0-4.66,9.18c-0.74,2-1.47,2.31-3.37,1.94-14.7-2.86-29.28-2.39-43.54,2.39a82.67,82.67,0,0,0-32.35,20c-0.92.91-2,1.65-3.48,2.87l0.43-4.69L135,343l-2.29,3.4c-3.16-.32-6.57-0.06-9.45,2.73-4.12,4-4.73,10.72-.91,15.07,1.27,1.45,1.3,2.47.52,4.14-8.38,18.07-10.33,36.44-5.64,55,0.37-.1.75-0.2,1.15-0.27a83,83,0,0,1-2-12.49,77.43,77.43,0,0,1,10.31-46.11c-9.6,19.59-12.11,39.06-7.39,58.44,0.74-.1,1.51-0.15,2.29-0.18-3.78-15-2.93-30,2.1-45,0.57-1.69,1.62-3.24,2-4.95,0.87-3.81,3-5.55,6.89-4.79a6.3,6.3,0,0,1,3.34,1.58,39.12,39.12,0,0,1,5.5,7.24c0.81,1.48.5,3.57,0.65,5.41-0.28-.19-0.54-0.4-0.8-0.61-0.78,2.1-2.87,3.79-1.53,6.56a4.66,4.66,0,0,1-.22,3.91c-6.54,10-9.17,20.36-8,31.13l0.71,0H134l0.3,0A46,46,0,0,1,137,402.81c7-19.37,29.63-31.76,49.74-27.43a44.55,44.55,0,0,1,35.09,36,42.82,42.82,0,0,1,.47,11.4,18.66,18.66,0,0,1,4.18.83,5.12,5.12,0,0,1-1-2.62c-0.25-5.58-.15-5.55,5.27-6.52,7.13-1.28,14.26-2.6,21.38-3.93,2.26-.42,3.94-0.42,2.78,2.72a5.59,5.59,0,0,0-.22,2.8,5,5,0,0,0,1.22,2,1.76,1.76,0,0,0,1-.23,10,10,0,0,0-.34-2.23,4.06,4.06,0,0,0-.82-1.07c4.61-.77.83-2.85,0.81-4.69l19.35-3.52c0,1.53.11,2.73,0,3.92A92.27,92.27,0,0,1,273.65,423h0.1l1.68,0.08c1.23-5.36,2.38-10.65,3.5-15.64,0,0.25,0,1.33,0,2.41a35.42,35.42,0,0,1-.26,3.76c-0.47,3.22-1.07,6.41-1.83,9.55l1.4,0.09a88.36,88.36,0,0,0,2.2-14.71,19.53,19.53,0,0,1,.56-2.8l3.86,2.86,0.21-3.76L293,403.3l0.13-.69c-1.18-.44-2.34-1-3.55-1.31-4.78-1.39-5.08-1.73-5.32-6.45-0.05-1,0-2.06-.09-3.09-0.13-2.85-.14-2.85-3.24-3.85,0.83,3.66,2.81,7.19,0,10.93-1.52-12.57-4.74-24.62-11.45-36.52l5.23,1.34,0.41-.63-2.18-1.93c0.09-3.43-.18-6.65.41-9.69,0.31-1.62,2.13-2.94,3.71-5,16.39,24.36,22.6,50,16.44,77a5.69,5.69,0,0,1,2-.53c5.25-25.54.54-49.55-13.21-71.78-3.26-5.27-3.26-5.27,1.49-9.26a3.94,3.94,0,0,0,.64-0.88c2.75-1.06.76-2.34,0.08-3.52-0.82-1.41-1.7-2.85-3.64-1.4s-3.8,2.88-6.2,4.69a16.65,16.65,0,0,0-1.28-2C260,323.6,243.76,313,224.1,307.71c-26.67-7.14-52.31-4.21-76.07,9.66-28.26,16.5-44.88,41.38-49.3,74a96.67,96.67,0,0,0,1,32,5.53,5.53,0,0,1,1.82,0,90.25,90.25,0,0,1,1.16-42.79C113.17,341.46,138.67,316.43,178.43,308.21Zm80.25,57.45c1.45,0,3,.75,4.32.39,2.85-.79,3.92.67,5,2.85a84.82,84.82,0,0,1,7.25,23c0.26,1.52.31,3.08,0.53,5.33-6.12-1.72-11.56-3.21-17-4.82-0.64-.19-1-1.21-1.61-1.64a5.11,5.11,0,0,0-2.32-.94c-1.87-.14-3.85.33-5.62-0.12-5.79-1.49-11.49-3.27-17.47-5a5.16,5.16,0,0,1,.9-1.5c7.37-5.69,14.73-11.39,22.22-16.94C255.82,365.62,257.4,365.67,258.68,365.66ZM252.09,344a90.53,90.53,0,0,0-27.76-16.17C229,326.83,248.65,338.63,252.09,344Zm-1.4,9.27c0.71,5.42-4,6.47-7,8.91a2.5,2.5,0,0,1-2.35-.55c-1.21-2.54-2.83-1.06-4.56-.18l5.39,2.07-17.35,13.34V353.34l3.62-.92,0.07-1-4-.56v-21c4.65,2.27,9.13,4,13.12,6.54a134.49,134.49,0,0,1,13,9.81c0.72,0.59.83,2.23,0.8,3.38S250.54,352.09,250.69,353.24Zm-35-28.55c-7.16-.45-14.36-1.6-21.45-1.14a88.78,88.78,0,0,0-21.55,4,85.44,85.44,0,0,0-19.44,9.3c-6.08,3.89-11.32,9.08-16.87,13.64C153.36,329.05,187.22,316.83,215.71,324.69Zm-94.48,29.63a9.11,9.11,0,0,1,7.74-6.93c2.2-.37,4.69-0.7,7.09,2.23a26.33,26.33,0,0,1-3.33,0c-3.43-.56-6.37.4-8.22,3.33a7.9,7.9,0,0,0,0,8.64,8.42,8.42,0,0,1,.53,2.64C120.71,361.79,120.27,358.09,121.23,354.32ZM144.64,386c-0.55.88-1.2,1.7-2.08,2.92l-2.12-3c1.44-1,4.27-1.14,1.8-3.56,1.25,0,2.87-.42,3.58.2C147.6,384.12,145.32,384.92,144.64,386Zm3.4-3.52c-4.32-5.61-8.63-11.12-12.83-16.72-1.26-1.68-2.44-2.77-4.84-2.71-3.23.07-5.52-2.85-5.4-6.12a5.86,5.86,0,0,1,5.95-5.7c3.38,0,6.71,2.48,5.93,5.46-1.29,4.9,2.13,7.47,4.11,10.65a95.46,95.46,0,0,0,8.57,11.25C151.26,380.61,150.42,381.43,148,382.47Zm5.15-3.4a2,2,0,0,1-1.89-.34c-3.34-4.21-6.58-8.51-9.84-12.78l0.49-.63,25,7.2C162.1,374.86,157.67,377,153.19,379.07Zm23.39-7.54-37.8-10.84a55.53,55.53,0,0,0-.56-6.08c-0.34-1.68.22-2.31,1.73-2.39a56.29,56.29,0,0,0,.76,6.7c0.16,0.71,1.37,1.45,2.24,1.7,9.56,2.78,19.16,5.44,28.74,8.18,1.76,0.5,3.45,1.21,5.18,1.82Zm-4.19-19.77,9.4,12.3C175.33,364.88,170,357.78,172.4,351.76Zm0.83-2.58c2.74-6.4,11.72-7.71,16.34-2.26Zm13.71,5.17a5,5,0,0,1-5.14,4.79,5,5,0,0,1,.35-9.89A4.78,4.78,0,0,1,186.93,354.35Zm-9.34-4.7-2,4.32-3.1-3.65Zm3,11.1,4.68-1.07-1.78,4.57ZM191,348.89c4.24,4.58.34,14.88-6.13,14.87Zm0.46,24.49a33.73,33.73,0,0,1-3.89-1.27c-0.87-.45-2.06-1.39-2.08-2.13a3.94,3.94,0,0,1,1.54-3c8.89-5.21,10.66-9.95,7.34-20.08l3.13-2.95-0.49-.61-3.57,2.13c-8.39-9.14-22.93-5.9-25.24,7.49-0.85-.3-2.3-1-2.46-0.83-0.65.89-.91,2.06-1.7,4.12,3.76-2.58,4.56-1.13,5.09,1.61,0.74,3.82,3.27,6.44,6.63,8.34a13,13,0,0,1,2.2,2l-0.49.82c-1.8-.4-3.62-0.7-5.39-1.2-9.18-2.62-18.33-5.35-27.53-7.89-1.9-.52-2.81-1.2-3-3.31-0.1-1.5-1-2.94-1.57-4.41h0.06c1.89-2.38,3.44-5.15,5.71-7.08C165,328.81,187.06,322.45,212,326.84a20.06,20.06,0,0,1,2.15.49,5.35,5.35,0,0,1,1.06.71c-2.32,4.89-4.62,9.81-7,14.68a3.54,3.54,0,0,1-1.72,1c-1.05.47-2.13,0.88-3.2,1.32l0.33,1,3.46-.87c-1.72,3.8-3.3,7.37-5,10.9-2.44,5.23-5,10.41-7.35,15.68C194,373.46,193.16,374,191.43,373.38Zm3.69,0.53,26.76-57.07,0.77,0.14,1.1,60.26-1.23,0-0.75-51.16-1.24-.21a28.79,28.79,0,0,0-1.84,3q-10.07,21.67-20.09,43.36C198,373.54,197.55,375.48,195.11,373.91ZM220,332.84v45.61h-0.3V332.85Zm-19.9,40.72q8.5-18.36,17-36.72l1.07,0.06v43.82c-2.1-.51-4.4-1-6.68-1.64-3.33-.91-6.62-2-10-2.84C199.85,375.82,199.37,375.06,200.06,373.56Zm2.25,5.25,0.28-1,14.36,4L216.6,383Zm17.54,10.45c-1,.76-2,1.46-3.2,2.29l-2.34-2.71c4.12-3.19,8.05-6.25,12-9.28,9.32-7.15,18.7-14.22,27.92-21.5,1.09-.86,1.51-2.75,1.93-4.25,0.78-2.81,2.26-4.69,5.32-5a5.77,5.77,0,0,1,6.31,3.69,5.62,5.62,0,0,1-2.34,7.13c-1.44.76-3.39,0.53-5.09,0.84-1.43.26-3.13,0.27-4.2,1.07C244,370.71,231.94,380,219.85,389.25Zm3.84,15.51H223.1V391.43l0.59,0v13.35Zm1.66,5V389.21l43.33,12.37,0.05,0.8Zm62.56-7.62V403c-3.08.57-6.16,1.16-9.24,1.71q-25.27,4.47-50.56,8.87a8.53,8.53,0,0,1-2.73-.46c0.78-.6,1.5-1.59,2.36-1.74,15.73-2.73,31.48-5.35,47.21-8a32.29,32.29,0,0,0,4-1.2l0-1.2-49.28-14.21L230,385.6Zm-9.42-4.82a99.43,99.43,0,0,0-9.84-32.42A66.53,66.53,0,0,1,278.5,397.29Z" transform="translate(-87.66 -303.95)"/><path d="M251.92,421.95c-4.41-3.65-9.83-5.53-15.92-2.3a15.32,15.32,0,0,0-3.91,2.91,12.07,12.07,0,0,1,4.54.48,9.63,9.63,0,0,1,8.65-1.11c3.51-.53,7.14-0.28,9.72,1.31l1-1.41-0.45-1Z" transform="translate(-87.66 -303.95)"/><path d="M144.9,452.07a17.08,17.08,0,0,0-1.74,1.3c-1.24,1.11-2.33,2.4-3.48,3.61l4.3-2.65c0.73-.64,1.41-1.38,2.11-2.09A5.37,5.37,0,0,1,144.9,452.07Z" transform="translate(-87.66 -303.95)"/><path d="M166.31,323.93l-8.47,5.21c-0.71-3-.67-2.91,2.08-4.09s5.31-2.53,8.34-4v4.29Z" transform="translate(-87.66 -303.95)"/><path d="M114.51,418.12c-4.3-1.55-5.39-4.31-4.12-9.4a36.34,36.34,0,0,1,2.5,3.15,9.05,9.05,0,0,1-1.35,1.3Z" transform="translate(-87.66 -303.95)"/><path d="M150.74,331.68l-5.16,5.73c-1.74-4.73,2.26-4.88,3.94-6.73Z" transform="translate(-87.66 -303.95)"/><path d="M176.34,322c0.24-3.07,2.12-4,7.06-3.66C181.62,321.11,178.87,321.08,176.34,322Z" transform="translate(-87.66 -303.95)"/><path d="M254.94,340.85l-3.87-2,2.35-2.63,4.27,5.51-2.65.68Z" transform="translate(-87.66 -303.95)"/><path d="M230.95,324.51l-4.4.74c3.4-3.24,3.95-3.21,8.71.47l-4,.85Z" transform="translate(-87.66 -303.95)"/><path d="M191.08,317c-0.53,1.68-1,3.25-3.15,2.1-0.31-.17-1,0.42-1.54.64s-1.05.4-1.8,0.68C185.28,315.68,188.69,317.46,191.08,317Z" transform="translate(-87.66 -303.95)"/><path d="M118.92,371.33c-2.17-1.6-1.73-3.44.2-5.86l0.88,5.68Z" transform="translate(-87.66 -303.95)"/><path d="M111.4,395.83l1.59,4.08-1.54.62-1.65-4Z" transform="translate(-87.66 -303.95)"/><path d="M251.16,470.85c-0.27.88-.26,2.13-0.86,2.58-2.64,2-5.45,3.77-8.58,5.89l-0.33-2.49,9-6.34Z" transform="translate(-87.66 -303.95)"/><path d="M282.85,419l-1.58-1.28c1.77-1.9-.26-4.27.71-6.29C284.65,412.34,285,414.87,282.85,419Z" transform="translate(-87.66 -303.95)"/><path d="M282.75,423.5l0.17,0c0.07-1.78-.83-3-2.73-4l1.09,3.91Z" transform="translate(-87.66 -303.95)"/><path d="M175.59,485.15c-2.52,3.33-3,3.34-7.89.65,1.67-.54,2.91-3,4.6-0.07C172.46,486,174,485.45,175.59,485.15Z" transform="translate(-87.66 -303.95)"/><path d="M277.38,370c-1.7.29-3.78-2-4.4-4.77C276.57,365.54,277,366,277.38,370Z" transform="translate(-87.66 -303.95)"/><path d="M212.54,488.73l1.54-2.53c0.48,4-.95,4.82-5.58,3l3.21-1.37Z" transform="translate(-87.66 -303.95)"/><path d="M187.88,488.84c-1.15.75-1.83,1.55-2.53,1.57a27.82,27.82,0,0,1-4.43-.5,2.66,2.66,0,0,1,.24-1.38,3.07,3.07,0,0,1,1.91-.78A40.87,40.87,0,0,1,187.88,488.84Z" transform="translate(-87.66 -303.95)"/><path d="M199.62,491.1l0.81-2.2h4.83C204.79,491.32,204.72,491.36,199.62,491.1Z" transform="translate(-87.66 -303.95)"/><path d="M279.66,375.4l-2.37.42L276,372.31l0.56-.62,3.63,2.71Z" transform="translate(-87.66 -303.95)"/><path d="M257.42,467.45l-3.55,3.15c0-1.66-.36-2.91.09-3.36,0.63-.64,1.86-0.67,2.83-1Z" transform="translate(-87.66 -303.95)"/><path d="M160.19,356.61c-0.09.68-.14,1.37-0.29,2s-0.37,1.17-.68,2.14L158,359.33l-1.58,3.48C154.66,358.74,158.12,358.12,160.19,356.61Z" transform="translate(-87.66 -303.95)"/><path d="M198.82,451.9l0.26,0.34c-7.44,5-15.34,6.79-24.78,6l3.93-6.23L178,452c-0.65,0-1.31,0-2,0l-0.63,1.11,0.13-1.11-1.65,0-0.09.61c-0.13-.2-0.25-0.41-0.36-0.63l-1.76-.05c0.72,1.92,1.12,4.1,1.82,6.66-2.88-.72-5-1.08-7.05-1.8-3.61-1.29-7.15-2.8-10.72-4.22,10.83,8.21,29.33,9.13,41.38,2a28.93,28.93,0,0,0,3.48-2.58A5.37,5.37,0,0,1,198.82,451.9Z" transform="translate(-87.66 -303.95)"/><path d="M144.67,413.74c-1.05,4.33-.74,5.06,3,6.24l-2.47-3.52,2-3.19c0.83,0.15,1.55.25,2.27,0.42a4.52,4.52,0,0,1,.9.45,42.23,42.23,0,0,0,.33,9.13,4.57,4.57,0,0,1,2.84,0,24.36,24.36,0,0,1,3.55-18.08c5.84-8.67,17.29-13.25,26.46-10.22a67.9,67.9,0,0,1-3,6.37c-0.33.56-1.63,0.71-2.49,0.75-7.8.32-14.2,5-16.13,11.81a17.14,17.14,0,0,0,0,9.77,10.53,10.53,0,0,1,1-.32,14.74,14.74,0,0,1-.56-6.48c1.14-8,7.57-13.78,15.51-13.59a4.4,4.4,0,0,0,4.76-3q3.82-8.45,7.93-16.77c0.35-.7,1.45-1,2.21-1.52a7,7,0,0,1-.1,2.49c-3.11,7-6.25,14-9.6,20.85-0.37.75-2.2,1.19-3.31,1.11-8.25-.57-14.71,5.33-14.16,13.11a12.79,12.79,0,0,0,.74,3.45,13.93,13.93,0,0,1,1.83.19,10.7,10.7,0,0,1,9.44-15,10.83,10.83,0,0,1,11.18,10.43,10.54,10.54,0,0,1-1.06,4.73,7.35,7.35,0,0,1,1.65.22,14.46,14.46,0,0,0,.75-2.66c0.47-2.59,1.26-3.59,4-4,6.85-.93,13.63-2.34,20.45-3.46a10.56,10.56,0,0,1,3,.39l-0.14,1.55-13.85,2.49c-0.72.13-1.46,0.16-2.19,0.28-3.85.65-7,1.23-8.8,5.38a13.08,13.08,0,0,1,1.59-.52,5.44,5.44,0,0,1,.46-1.41,4.46,4.46,0,0,1,1.26-1c0.22,0.49.48,1,.67,1.46l0.18,0.51c0.63-.09,1.28-0.15,1.93-0.2l-0.22-2.18,3.81-.62a11.48,11.48,0,0,1,.2,2.77,20.8,20.8,0,0,1,5.45,1,5.28,5.28,0,0,1,.52-0.15l-2.41-.46,0.11-1,6.43,1.21c1.58-.08,3.24-0.17,4.9-0.21l-11.45-2.55-0.14-1.38,11.65-2v5.92h1a43.89,43.89,0,0,0-.41-10.27c-0.65-4.16-2.89-8.07-4.41-12.1,0.89,2.77,1.72,5.56,2.71,8.29,0.66,1.83.33,2.76-1.76,2.92a21,21,0,0,0-4.64.77c-3.38,1.06-5.19.29-6.24-3.45-0.67-2.39-.57-3.57,1.53-4.81a25.63,25.63,0,0,0,5-3.82c1.43-1.43,2.43-1.15,3.53.2l-3.12-4.3c-3.29,2.56-6.34,5.09-9.56,7.37-1.63,1.15-1.92,2.21-1,3.94s1.53,3.64,2.29,5.5c-1.75,1.33-2.89,1.5-3.94-.52-0.34-.66-1.5-0.91-2.28-1.34l-0.56.81,1.48,2.18-0.39.74a8.31,8.31,0,0,1-2.63-1.38,13.27,13.27,0,0,1-1.55-3.24c1-2,2.38-3.08,5.09-1.45l-0.94-3.19,1.74-1.28-1.37-2.43,11.43-8.62,1.82,2.36-4.27-5.89,0,0a11.57,11.57,0,0,0-1.42-1.66c-13.52-10.9-28.36-12.68-44.12-5.81-4.07,1.77-8.4,3.81-10.61,8.26a2.42,2.42,0,0,1,1.16-.33,4,4,0,0,1,1.74,6.3c-2.46,3.09-2.46,3.09-.85,5.46l4.23-5.74,1.78,2.38-7.68,13.71c-2.16.56-3.15-.87-3.15-2.51a16.88,16.88,0,0,0-3.6-.74,5.75,5.75,0,0,0-3.35.89,2.85,2.85,0,0,0-.19,2.82,6.39,6.39,0,0,0,3.06,1.57A3.93,3.93,0,0,0,144.67,413.74Zm48.15,0.82c-1.32,1.21-2.38,1.22-3.48-.45-1.46-2.23-3.08-4.35-5-7l0.88-1.63C187.44,405,191.53,410.07,192.81,414.56Zm-2.3-8a26,26,0,0,1-4.42-3c0.43-.34.92-1,1.27-1,1.52,0.26,3,.75,5.6,1.45C192.07,405,190.87,406.76,190.52,406.61Zm5.27-3-8.27-3.26,1.6-3.36C194.83,399.31,197.18,402.17,195.78,403.61Zm1.7-19.33c2.84,1.65,5.55,3.51,8.31,5.3-0.32.82-.42,1.91-1,2.4-2.58,2.12-5.3,4.07-7.91,6a3,3,0,0,1-.72-0.27c-1.78-1.41-5.16-3.06-5-4.22,0.43-3.2,2.27-6.23,3.77-9.22C195.1,383.93,196.81,383.89,197.48,384.28Zm-13.15-3c0.9-3.21,3.38-.8,5.73-0.27l-5,10.73-0.88-.37C184.14,388,183.46,384.42,184.33,381.29ZM182,379.85l1.2,0.11-0.8,10.53-1.1-.09Zm-5.41-.57c-0.28,3.67-.47,7.08-0.88,10.46a2.65,2.65,0,0,1-1.64,1.51c-3.14,1.12-6.32,2.14-9.52,3.1a2.19,2.19,0,0,1-1.82-.35,2.41,2.41,0,0,1-.29-1.76c0.12-1,.42-2,0.78-3.7L159.63,390l-3.41-4.51C162.51,381.55,168.91,379.11,176.62,379.27Zm-21.78,12.41c-0.83-1.24-3.28-2.31-1.25-4.33,1.3-1.3,2-.74,4.9,3.57C157.34,392.15,156.32,393.89,154.84,391.68Zm3,3.6,2.41-1.91c2.29,2.46,2.29,2.46-.87,4.22Z" transform="translate(-87.66 -303.95)"/><path d="M125.78,452.42l-0.37.16c-2.51,1.18-3.27,4.15-2.07,6.76,1,2.2,3.83,3.68,6,2.48a9.56,9.56,0,0,0,4.29-4.57,9.39,9.39,0,0,1,4.15-5.32A111.32,111.32,0,0,1,125.78,452.42Zm4.15,7.19a4.38,4.38,0,0,1-3.6.23c-1.4-.68-2.43-2.09-1.14-3.86l3.74-2.52C132,455.91,132.45,458.09,129.93,459.61Z" transform="translate(-87.66 -303.95)"/><path d="M138.29,424a35.16,35.16,0,0,1,1.84-17.27c1.9-5.21,5.37-9.85,8.13-14.74a11.69,11.69,0,0,0-2.64,2.06c-6.7,9.47-9.54,19.46-8,30h0.71Z" transform="translate(-87.66 -303.95)"/><path d="M125.19,456l3.74-2.52a8.13,8.13,0,0,1,1.28,2c0.26,0.91.57,2.24,0.13,2.79-0.6.75-2.42,1.56-2.8,1.24C126.5,458.64,125.94,457.19,125.19,456Z" transform="translate(-87.66 -303.95)"/><path d="M155.92,417.86l2.46-3.11-1.08-3.23c3.11,1.45,2.26,3.7,1.56,5.76-0.23.68-1.3,1.08-2,1.6Z" transform="translate(-87.66 -303.95)"/><path class="cls-1" d="M100,430a0.87,0.87,0,0,0-.86.62,4.27,4.27,0,0,0-.16.66,5.28,5.28,0,0,0-.06.82l0,11a7.21,7.21,0,0,1-.56,3,6.86,6.86,0,0,1-1.3,2,6,6,0,0,1-.7.64,7,7,0,0,1-.58.42,5.23,5.23,0,0,1-.84.4,3.29,3.29,0,0,1-.56.16s-0.06,0-.06,0a0.22,0.22,0,0,1,.14-0.16l0.22-.18a3.31,3.31,0,0,0,.86-0.68,5.63,5.63,0,0,0,1.12-2,10,10,0,0,0,.58-3.68l0-11a1.81,1.81,0,0,0-.5-1.5,2.54,2.54,0,0,0-.88-0.46,0.92,0.92,0,0,1-.42-0.24l0.14,0,0.26,0,0.9,0.08,1.4,0a14.2,14.2,0,0,0,1.88-.12,1.06,1.06,0,0,1,.42,0A1.41,1.41,0,0,1,100,430Z" transform="translate(-87.66 -303.95)"/><path class="cls-1" d="M116.44,439.11a8.38,8.38,0,0,1-.92,2.44,6.79,6.79,0,0,1-2.36,2.38,8,8,0,0,1-1.92.84,8.7,8.7,0,0,1-1.1.24,7.56,7.56,0,0,1-1.2.08,9.22,9.22,0,0,1-4.32-.88,6.31,6.31,0,0,1-2.44-2.14,7.87,7.87,0,0,1-1.06-2.46q-0.08-.54-0.18-1.14c0-.4-0.06-0.76-0.06-1.08a11.79,11.79,0,0,1,.2-2.06,8.5,8.5,0,0,1,1-2.52,6.19,6.19,0,0,1,2.26-2.3,6.4,6.4,0,0,1,1.8-.76,9.91,9.91,0,0,1,1.06-.22,10.41,10.41,0,0,1,1.16-.06l0.12,0h0.34l0.92,0,0.78,0.12h0.06a2.23,2.23,0,0,1,.4.1,7.24,7.24,0,0,1,2.46,1,6.72,6.72,0,0,1,2.24,2.42,8.14,8.14,0,0,1,.72,1.88,9.2,9.2,0,0,1,.28,2.32A9.89,9.89,0,0,1,116.44,439.11Zm-1.92-3.82a5.9,5.9,0,0,0-.66-1.8,6,6,0,0,0-1.92-2.26,6.88,6.88,0,0,0-2.08-.9l-0.84-.16-0.24,0-0.24,0h-0.22a6,6,0,0,0-1.66.22,3.88,3.88,0,0,0-1.3.66,5,5,0,0,0-1.68,2.08,8,8,0,0,0-.7,2.4,14.17,14.17,0,0,0-.18,2.06,10.71,10.71,0,0,0,.36,2.32,6.47,6.47,0,0,0,1.72,3A4.69,4.69,0,0,0,106.6,444a6,6,0,0,0,2.32.42,5.45,5.45,0,0,0,1.76-.26,4.34,4.34,0,0,0,1.42-.74,5.54,5.54,0,0,0,1.76-2.14,8.08,8.08,0,0,0,.72-2.2,10.17,10.17,0,0,0,.14-1.52A10.9,10.9,0,0,0,114.52,435.29Z" transform="translate(-87.66 -303.95)"/><path class="cls-1" d="M132.64,444.77l-0.24,0-1,0-1.1,0-1.36,0-0.76.06c-0.16,0-.24,0-0.24-0.06a0.3,0.3,0,0,1,.26-0.18,1.87,1.87,0,0,0,.9-1.92s0-2,0-5.86h-8.7l0,5.86a1.65,1.65,0,0,0,1.52,1.94,0.62,0.62,0,0,1,.36.12l-0.06,0-0.1,0-0.24,0-1,0-1,0-1.34,0-0.78.06a0.34,0.34,0,0,1-.26-0.06,0.42,0.42,0,0,1,.24-0.18,1.25,1.25,0,0,0,.6-0.42,2.4,2.4,0,0,0,.34-1.5v-11a1.75,1.75,0,0,0-.26-1.06,1.35,1.35,0,0,0-.6-0.44l-0.44-.16a0.41,0.41,0,0,1-.4-0.12l0,0,0.12-.06,0.26-.06,1,0.06,1.26,0,1,0,0.7-.06q0.42,0,.42.1a0.71,0.71,0,0,1-.44.22,0.94,0.94,0,0,0-.52.36,2.06,2.06,0,0,0-.32,1.36V436h8.7l0-2v-2.18a1.65,1.65,0,0,0-.48-1.36,2.12,2.12,0,0,0-.84-0.44,0.83,0.83,0,0,1-.44-0.18v0l0.08,0,0.08,0,0.28,0,0.78,0.08,1.32,0a16.62,16.62,0,0,0,1.94-.12c0.28,0,.42,0,0.42.1a1.12,1.12,0,0,1-.4.2,0.8,0.8,0,0,0-.32.12,1.67,1.67,0,0,0-.5.54,2.35,2.35,0,0,0-.22,1.12l0,10.84a1.72,1.72,0,0,0,1.52,1.94l0.28,0.06c0.12,0,.18,0,0.18.08Z" transform="translate(-87.66 -303.95)"/><path class="cls-1" d="M151.4,430q-1.14,0-1.14,1.52v13.08c0,0.25-.07.38-0.2,0.38a0.65,0.65,0,0,1-.28-0.14l-0.26-.24-11.06-12.84v10.92a1.65,1.65,0,0,0,1.52,1.88l0.24,0.08a0.29,0.29,0,0,1,.14.1l-0.18,0-0.16,0-1,0-1,0-1.26,0-0.74.06a0.46,0.46,0,0,1-.3,0,0.42,0.42,0,0,1,.24-0.18,1.5,1.5,0,0,0,.78-0.38,2.21,2.21,0,0,0,.48-1.7v-12.7l0-.3a0.18,0.18,0,0,1,.14-0.18,0.91,0.91,0,0,1,.5.48l11.18,12.74v-11a1.25,1.25,0,0,0-.56-1.22,2.12,2.12,0,0,0-1-.3,1.07,1.07,0,0,1-.18-0.18,0.08,0.08,0,0,1,0-.06v0l0,0a0.26,0.26,0,0,1,.14,0l0.88,0.06,1.18,0a13.88,13.88,0,0,0,1.8-.1l0.24,0h0.14A0.75,0.75,0,0,1,151.4,430Z" transform="translate(-87.66 -303.95)"/><path class="cls-1" d="M167.84,444.77l-0.22,0-3.84,0-0.14-.06a0.12,0.12,0,0,1-.1-0.1,0.47,0.47,0,0,1,.32-0.2,0.24,0.24,0,0,0,.26-0.28,2.43,2.43,0,0,0-.28-0.92l-1.5-4a0.51,0.51,0,0,0-.48-0.34H158a0.4,0.4,0,0,0-.48.36l-1.32,4,0,0.18,0,0.26a0.92,0.92,0,0,0,.74.92l0.22,0.08a0.29,0.29,0,0,1,.14.1l-0.12,0-0.18,0-3.84,0a0.2,0.2,0,0,1-.22-0.08l0.12-.06,0.16-.06a2,2,0,0,0,1.34-.64A3.27,3.27,0,0,0,155,443l4.84-13.22a0.49,0.49,0,0,0,.06-0.12,0.54,0.54,0,0,1,0-.12,0.23,0.23,0,0,1,.2-0.14,0.46,0.46,0,0,1,.3.42l5.08,13a3.56,3.56,0,0,0,.58,1,1.55,1.55,0,0,0,.58.5,1.82,1.82,0,0,0,.82.18l0.26,0.06a0.31,0.31,0,0,1,.16.08Zm-6-6.84-1.76-5.1c-0.05-.25-0.13-0.38-0.22-0.38a0.18,0.18,0,0,0-.12.14l-0.06.22-1.66,5s-0.06.06-.06,0.18,0.09,0.16.26,0.16h3.4c0.17,0,.26,0,0.26-0.14A0.32,0.32,0,0,0,161.82,437.93Z" transform="translate(-87.66 -303.95)"/><path class="cls-1" d="M178.5,431.83a0.67,0.67,0,0,1-.06.4,0.29,0.29,0,0,1-.14-0.1l-0.1-.18a2.18,2.18,0,0,0-2.12-1.42h-2.9v12.26a2.47,2.47,0,0,0,.26,1.08,1.5,1.5,0,0,0,1.08.72l0.34,0.06c0.13,0,.2,0,0.2.08l-0.14,0-0.32,0-2.28,0H170.6a0.8,0.8,0,0,0-.22,0,0.87,0.87,0,0,1-.42,0l0.12-.06,0.24-.1,0.12,0,0.14,0,0.18-.06,0.08,0a1.42,1.42,0,0,0,.42-0.48,1.73,1.73,0,0,0,.18-0.48,0.53,0.53,0,0,0,0-.16,0.44,0.44,0,0,1,0-.14,2.16,2.16,0,0,0,0-.36v-12.3h-2.78a4.25,4.25,0,0,0-1.34.24,2.17,2.17,0,0,0-1.18,1,0.66,0.66,0,0,1-.28.32l0-.12v-0.22l0.38-1.82a0.76,0.76,0,0,1,.06-0.3,0.25,0.25,0,0,1,.26-0.18,0.63,0.63,0,0,1,.3.14l2.58,0.08,4.18,0,2.14,0,2.22,0,0.12-.06,0.18,0q0.24,0,.24.52Z" transform="translate(-87.66 -303.95)"/><path class="cls-1" d="M192,444.77l-0.22,0-3.84,0-0.14-.06a0.12,0.12,0,0,1-.1-0.1,0.47,0.47,0,0,1,.32-0.2,0.24,0.24,0,0,0,.26-0.28,2.43,2.43,0,0,0-.28-0.92l-1.5-4a0.51,0.51,0,0,0-.48-0.34H182.2a0.4,0.4,0,0,0-.48.36l-1.32,4,0,0.18,0,0.26a0.92,0.92,0,0,0,.74.92l0.22,0.08a0.29,0.29,0,0,1,.14.1l-0.12,0-0.18,0-3.84,0a0.2,0.2,0,0,1-.22-0.08l0.12-.06,0.16-.06a2,2,0,0,0,1.34-.64,3.27,3.27,0,0,0,.56-0.9l4.84-13.22a0.49,0.49,0,0,0,.06-0.12,0.54,0.54,0,0,1,0-.12,0.23,0.23,0,0,1,.2-0.14,0.46,0.46,0,0,1,.3.42l5.08,13a3.56,3.56,0,0,0,.58,1,1.55,1.55,0,0,0,.58.5,1.82,1.82,0,0,0,.82.18l0.26,0.06a0.31,0.31,0,0,1,.16.08Zm-6-6.84-1.76-5.1c-0.05-.25-0.13-0.38-0.22-0.38a0.18,0.18,0,0,0-.12.14l-0.06.22-1.66,5s-0.06.06-.06,0.18,0.09,0.16.26,0.16h3.4c0.17,0,.26,0,0.26-0.14A0.32,0.32,0,0,0,186,437.93Z" transform="translate(-87.66 -303.95)"/><path class="cls-1" d="M208.58,430q-1.14,0-1.14,1.52v13.08c0,0.25-.07.38-0.2,0.38a0.65,0.65,0,0,1-.28-0.14l-0.26-.24-11.06-12.84v10.92a1.65,1.65,0,0,0,1.52,1.88l0.24,0.08a0.29,0.29,0,0,1,.14.1l-0.18,0-0.16,0-1,0-1,0-1.26,0-0.74.06a0.46,0.46,0,0,1-.3,0,0.42,0.42,0,0,1,.24-0.18,1.5,1.5,0,0,0,.78-0.38,2.21,2.21,0,0,0,.48-1.7v-12.7l0-.3a0.18,0.18,0,0,1,.14-0.18,0.91,0.91,0,0,1,.5.48l11.18,12.74v-11a1.25,1.25,0,0,0-.56-1.22,2.12,2.12,0,0,0-1-.3,1.07,1.07,0,0,1-.18-0.18,0.08,0.08,0,0,1,0-.06v0l0,0a0.26,0.26,0,0,1,.14,0l0.88,0.06,1.18,0a13.88,13.88,0,0,0,1.8-.1l0.24,0H209A0.75,0.75,0,0,1,208.58,430Z" transform="translate(-87.66 -303.95)"/><path class="cls-1" d="M213.2,438.39a1.28,1.28,0,0,1-.68-0.16,0.74,0.74,0,0,1-.34-0.42l0-.26,0-.36a0.72,0.72,0,0,1,.42-0.74,1.86,1.86,0,0,1,.7-0.18,1.5,1.5,0,0,1,.68.2,0.8,0.8,0,0,1,.4.82A1,1,0,0,1,213.2,438.39Z" transform="translate(-87.66 -303.95)"/><path class="cls-1" d="M231.54,437.53l-0.26.14a1.14,1.14,0,0,0-.84.6,2.48,2.48,0,0,0-.18.72l0,4.3a1.1,1.1,0,0,1-.48,1,2.17,2.17,0,0,1-.82.34,9.8,9.8,0,0,1-1.68.32q-1,.1-1.4.1a9.8,9.8,0,0,1-5.9-1.5,6.58,6.58,0,0,1-2.62-3.24,10.24,10.24,0,0,1-.58-3,13,13,0,0,1,.1-1.62,9,9,0,0,1,.36-1.4,5.39,5.39,0,0,1,1.38-2.18,8.14,8.14,0,0,1,3.52-2.18,11.81,11.81,0,0,1,2.64-.44l0.18,0h0.5a19.44,19.44,0,0,1,4.6.52,0.41,0.41,0,0,1,.2.12,0.3,0.3,0,0,1,.14.28,0.44,0.44,0,0,1-.08.28L230.22,433a0.37,0.37,0,0,1-.14.32,0.18,0.18,0,0,1-.12-0.14l-0.1-.24a2.93,2.93,0,0,0-1.62-2.2,6.59,6.59,0,0,0-2.76-.6h-0.24l-0.22,0a0.8,0.8,0,0,0-.26,0,8.33,8.33,0,0,0-1.46.18,6.16,6.16,0,0,0-2,.84,5.82,5.82,0,0,0-1.94,2.18,8.22,8.22,0,0,0-.82,3.92,10.41,10.41,0,0,0,.18,1.58,7.05,7.05,0,0,0,.84,2.28,5.77,5.77,0,0,0,2.12,2.18,6.87,6.87,0,0,0,3.78.94h0.44a4.74,4.74,0,0,0,1.66-.18,1.07,1.07,0,0,0,.52-0.2,1.11,1.11,0,0,0,.5-0.74l0-4A1.29,1.29,0,0,0,228,438l-0.18-.12-0.28-.14a1,1,0,0,0-.4-0.08,0.46,0.46,0,0,1-.4-0.1l0,0,0.12-.08,0.24-.08,0.84,0,1.38,0a15.81,15.81,0,0,0,1.9-.08q0.36,0,.36.1Z" transform="translate(-87.66 -303.95)"/><path class="cls-1" d="M247.28,444.77l-0.22,0-3.84,0-0.14-.06a0.12,0.12,0,0,1-.1-0.1,0.47,0.47,0,0,1,.32-0.2,0.24,0.24,0,0,0,.26-0.28,2.43,2.43,0,0,0-.28-0.92l-1.5-4a0.51,0.51,0,0,0-.48-0.34h-3.86a0.4,0.4,0,0,0-.48.36l-1.32,4,0,0.18,0,0.26a0.92,0.92,0,0,0,.74.92l0.22,0.08a0.29,0.29,0,0,1,.14.1l-0.12,0-0.18,0-3.84,0a0.2,0.2,0,0,1-.22-0.08l0.12-.06,0.16-.06a2,2,0,0,0,1.34-.64,3.27,3.27,0,0,0,.56-0.9l4.84-13.22a0.49,0.49,0,0,0,.06-0.12,0.54,0.54,0,0,1,0-.12,0.23,0.23,0,0,1,.2-0.14,0.46,0.46,0,0,1,.3.42l5.08,13a3.56,3.56,0,0,0,.58,1,1.55,1.55,0,0,0,.58.5,1.82,1.82,0,0,0,.82.18l0.26,0.06a0.31,0.31,0,0,1,.16.08Zm-6-6.84-1.76-5.1c-0.05-.25-0.13-0.38-0.22-0.38a0.18,0.18,0,0,0-.12.14l-0.06.22-1.66,5s-0.06.06-.06,0.18,0.09,0.16.26,0.16H241c0.17,0,.26,0,0.26-0.14A0.32,0.32,0,0,0,241.26,437.93Z" transform="translate(-87.66 -303.95)"/><path class="cls-1" d="M263.6,444.71l-0.12.06-0.12,0-0.54.06-0.62,0a5,5,0,0,1-2.46-.52,4.18,4.18,0,0,1-1.18-.82l-4.08-5.12H252v4.64a1.42,1.42,0,0,0,1.48,1.52l0.08,0.08,0.06,0.06v0a0.06,0.06,0,0,1,0,0l-0.16,0-1-.06-1.12,0q-0.84,0-1.36,0l-0.68.06a0.65,0.65,0,0,1-.36,0l0.06,0,0.08-.06,0.24-.1a1.26,1.26,0,0,0,.94-1.5V431a0.76,0.76,0,0,0-.52-0.74l-0.46-.16a1.32,1.32,0,0,0-.38-0.06,0.63,0.63,0,0,1-.36-0.2,0.16,0.16,0,0,1,.1-0.06l0.2,0,0.8,0,1.42,0,1.16,0,1.16,0,0.22,0,0.42,0,0.7,0,0.38,0,0.1,0,0.24,0.06a5,5,0,0,1,1.42.5,3.6,3.6,0,0,1,1.18,1.16,3.41,3.41,0,0,1,.4.88,3.66,3.66,0,0,1,.16,1.08,5,5,0,0,1-.54,2.36,5.36,5.36,0,0,1-1.08,1.5,7.11,7.11,0,0,1-.82.66l4.56,5.52a3.79,3.79,0,0,0,1.52.9,4.68,4.68,0,0,0,1.1.2c0.23,0,.34,0,0.34.08Zm-6.76-11v-0.24a3.05,3.05,0,0,0-1.24-2.5,4.26,4.26,0,0,0-2.18-.62H253a1.73,1.73,0,0,0-.34,0l-0.28,0a0.63,0.63,0,0,0-.42.08,0.17,0.17,0,0,0-.08.14v6.56a0.68,0.68,0,0,0,.14.28,0.31,0.31,0,0,0,.3.14l0.06,0a2,2,0,0,0,.34.12,3.34,3.34,0,0,0,.88.1l0.6,0a2.94,2.94,0,0,0,.92-0.22,2.56,2.56,0,0,0,1.14-1.1,4.64,4.64,0,0,0,.56-2.52Z" transform="translate(-87.66 -303.95)"/><path class="cls-1" d="M277.48,444a1.31,1.31,0,0,1-.24.42,1.07,1.07,0,0,1-.7.36l-0.9.2-0.18,0-0.2,0-0.42,0-0.78,0-0.58,0-0.8,0a10.21,10.21,0,0,1-4.44-.84,6,6,0,0,1-2.56-2,7.57,7.57,0,0,1-1.1-2.4,9.41,9.41,0,0,1-.28-2v-0.26l0-.16,0-.28v-0.26a8.25,8.25,0,0,1,.82-3.9,5.93,5.93,0,0,1,2-2.26,8.12,8.12,0,0,1,2.38-1,10.57,10.57,0,0,1,2.08-.24H272l0.14,0a30.52,30.52,0,0,1,5,.48,1,1,0,0,1,.46.14,0.62,0.62,0,0,1,.24.58l0,0.26-0.08,2.46a0.47,0.47,0,0,1-.16.36,0.18,0.18,0,0,1-.12-0.14l-0.06-.24a2.93,2.93,0,0,0-1.18-2,5.33,5.33,0,0,0-2.1-.92,10.91,10.91,0,0,0-2-.22,8.25,8.25,0,0,0-1.6.18,5.77,5.77,0,0,0-1.94.8,5.34,5.34,0,0,0-1.74,2,7.48,7.48,0,0,0-.72,3.48V437a1.15,1.15,0,0,0,0,.28,9.69,9.69,0,0,0,.2,1.9,8.4,8.4,0,0,0,.84,2.2,5.33,5.33,0,0,0,2.08,2,7,7,0,0,0,3.62.84h0.22l0.26,0a6.56,6.56,0,0,0,2.52-.52,2.9,2.9,0,0,0,1.66-2.06l0.12-.22a0.3,0.3,0,0,1,.16-0.14,0.49,0.49,0,0,1,.08.42Z" transform="translate(-87.66 -303.95)"/><path class="cls-1" d="M284.92,444.75l-0.1,0-0.22,0a13.56,13.56,0,0,0-2-.14l-0.8,0h-0.42l-0.12,0a0.22,0.22,0,0,0-.12,0l-0.82.08a0.46,0.46,0,0,1-.4-0.1l0,0,0.32-.08a2.33,2.33,0,0,0,.38-0.14,1.62,1.62,0,0,0,.48-0.44,1.43,1.43,0,0,0,.26-0.92v-11.9a1,1,0,0,0-.42-0.92,1.94,1.94,0,0,0-.68-0.26,0.71,0.71,0,0,1-.44-0.22,0.17,0.17,0,0,1,.16-0.1l0.26,0,0.84,0.1a13.61,13.61,0,0,0,1.38.06,12.47,12.47,0,0,0,1.64-.1,0.46,0.46,0,0,1,.34.06,0.75,0.75,0,0,1-.38.28,1,1,0,0,0-.94,1.14v11.86a1.67,1.67,0,0,0,.28.86,1.64,1.64,0,0,0,1.22.66l0.18,0.06,0.06,0,0.08,0Z" transform="translate(-87.66 -303.95)"/><path class="cls-1" d="M301.2,444.77l-0.22,0-3.84,0-0.14-.06a0.12,0.12,0,0,1-.1-0.1,0.47,0.47,0,0,1,.32-0.2,0.24,0.24,0,0,0,.26-0.28,2.43,2.43,0,0,0-.28-0.92l-1.5-4a0.51,0.51,0,0,0-.48-0.34h-3.86a0.4,0.4,0,0,0-.48.36l-1.32,4,0,0.18,0,0.26a0.92,0.92,0,0,0,.74.92l0.22,0.08a0.29,0.29,0,0,1,.14.1l-0.12,0-0.18,0-3.84,0a0.2,0.2,0,0,1-.22-0.08l0.12-.06,0.16-.06a2,2,0,0,0,1.34-.64,3.27,3.27,0,0,0,.56-0.9l4.84-13.22a0.49,0.49,0,0,0,.06-0.12,0.54,0.54,0,0,1,0-.12,0.23,0.23,0,0,1,.2-0.14,0.46,0.46,0,0,1,.3.42l5.08,13a3.53,3.53,0,0,0,.58,1,1.55,1.55,0,0,0,.58.5,1.82,1.82,0,0,0,.82.18l0.26,0.06a0.31,0.31,0,0,1,.16.08Zm-6-6.84-1.76-5.1c-0.05-.25-0.13-0.38-0.22-0.38a0.18,0.18,0,0,0-.12.14l-0.06.22-1.66,5s-0.06.06-.06,0.18,0.09,0.16.26,0.16H295c0.17,0,.26,0,0.26-0.14A0.33,0.33,0,0,0,295.18,437.93Z" transform="translate(-87.66 -303.95)"/><path class="cls-1" d="M306.21,453H87.66v-30.5H306.21V453ZM88.66,452H305.21v-28.5H88.66V452Z" transform="translate(-87.66 -303.95)"/></svg>